<svg width="24" height="24" viewBox="0 0 24 24" fill="none" xmlns="http://www.w3.org/2000/svg">
<path d="M4.25 3.75H13.5C14.4665 3.75 15.25 4.53351 15.25 5.5V6.88965H17.2041C17.7848 6.88978 18.3279 7.1782 18.6533 7.65918L21.1992 11.4238C21.395 11.7132 21.4999 12.0549 21.5 12.4043V17.25H22C22.1381 17.25 22.25 17.3619 22.25 17.5C22.25 17.6381 22.1381 17.75 22 17.75H19.6621L19.5869 18.1582C19.3651 19.3485 18.3198 20.2498 17.0654 20.25C15.8109 20.25 14.7657 19.3487 14.5439 18.1582L14.4678 17.75H9.91211L9.83691 18.1582C9.61515 19.3485 8.56978 20.2498 7.31543 20.25C6.06089 20.25 5.01579 19.3487 4.79395 18.1582L4.71777 17.75H4.25C3.28351 17.75 2.5 16.9665 2.5 16V5.5C2.5 4.5335 3.2835 3.75 4.25 3.75ZM7.31543 15.6201C6.17509 15.6201 5.25023 16.5443 5.25 17.6846C5.25 18.825 6.17495 19.75 7.31543 19.75C8.45571 19.7498 9.37988 18.8249 9.37988 17.6846C9.37965 16.5445 8.45557 15.6203 7.31543 15.6201ZM17.0654 15.6201C15.9251 15.6201 15.0002 16.5443 15 17.6846C15 18.825 15.925 19.75 17.0654 19.75C18.2057 19.7498 19.1299 18.8249 19.1299 17.6846C19.1297 16.5445 18.2055 15.6203 17.0654 15.6201ZM4.25 4.25C3.55965 4.25 3 4.80965 3 5.5V16C3 16.6903 3.55964 17.25 4.25 17.25H4.75977L4.87109 16.9023C5.20208 15.8679 6.17245 15.1201 7.31543 15.1201C8.45822 15.1203 9.42782 15.868 9.75879 16.9023L9.87012 17.25H14.5098L14.6211 16.9023C14.6466 16.8227 14.6762 16.7448 14.709 16.6689L14.75 16.5742V5.5C14.75 4.80964 14.1903 4.25 13.5 4.25H4.25ZM15.25 15.707L15.9648 15.3672C16.2977 15.2089 16.6707 15.1201 17.0654 15.1201C18.2082 15.1203 19.1779 15.8681 19.5088 16.9023L19.6201 17.25H21V12.1953H15.25V15.707ZM15.25 11.6953H20.7793L20.251 10.915L18.2393 7.93945C18.0068 7.5959 17.6189 7.38978 17.2041 7.38965H15.25V11.6953Z" stroke="#21C45D"/>
<path d="M12 10C12 11.6569 10.6569 13 9 13C7.34315 13 6 11.6569 6 10C6 8.34315 7.34315 7 9 7C9.47068 7 9.91605 7.1084 10.3125 7.30159M11.4375 8.125L8.8125 10.75L8.0625 10" stroke="#21C45D" stroke-linecap="round" stroke-linejoin="round"/>
</svg>
