<svg width="24" height="24" viewBox="0 0 24 24" fill="none" xmlns="http://www.w3.org/2000/svg">
<path d="M18.9375 18.9375C18.9375 19.5508 18.6939 20.139 18.2602 20.5727C17.8265 21.0064 17.2383 21.25 16.625 21.25C16.0117 21.25 15.4235 21.0064 14.9898 20.5727C14.5561 20.139 14.3125 19.5508 14.3125 18.9375C14.3125 18.3242 14.5561 17.736 14.9898 17.3023C15.4235 16.8686 16.0117 16.625 16.625 16.625C17.2383 16.625 17.8265 16.8686 18.2602 17.3023C18.6939 17.736 18.9375 18.3242 18.9375 18.9375ZM9.6875 18.9375C9.6875 19.5508 9.44386 20.139 9.01018 20.5727C8.57651 21.0064 7.98831 21.25 7.375 21.25C6.76169 21.25 6.17349 21.0064 5.73982 20.5727C5.30614 20.139 5.0625 19.5508 5.0625 18.9375C5.0625 18.3242 5.30614 17.736 5.73982 17.3023C6.17349 16.8686 6.76169 16.625 7.375 16.625C7.98831 16.625 8.57651 16.8686 9.01018 17.3023C9.44386 17.736 9.6875 18.3242 9.6875 18.9375Z" stroke="#F59F0A" stroke-width="1.58571" stroke-linecap="round" stroke-linejoin="round"/>
<path d="M2.75 12V16.625C2.75 17.4899 2.75 17.9219 2.93592 18.2438C3.0577 18.4547 3.23284 18.6298 3.44375 18.7516C3.76565 18.9375 4.19763 18.9375 5.0625 18.9375M14.3125 18.9375H9.6875M14.775 17.0875V9.225C14.775 7.91705 14.775 7.26308 14.368 6.857C13.9629 6.45 13.3089 6.45 12 6.45H11.075M15.2375 8.7625H16.9034C17.6712 8.7625 18.055 8.7625 18.3732 8.94287C18.6914 9.12232 18.8885 9.45162 19.2835 10.1102L20.855 12.728C21.0511 13.0554 21.1492 13.2201 21.2 13.4014C21.25 13.5836 21.25 13.7742 21.25 14.1562V16.625C21.25 17.4899 21.25 17.9219 21.0641 18.2438C20.9423 18.4547 20.7672 18.6298 20.5563 18.7516C20.2344 18.9375 19.8024 18.9375 18.9375 18.9375M8.16125 8.16125L6.9125 7.32875V5.2475M2.75 6.9125C2.75 7.45913 2.85767 8.0004 3.06685 8.50542C3.27604 9.01044 3.58264 9.46931 3.96917 9.85583C4.35569 10.2424 4.81456 10.549 5.31958 10.7581C5.8246 10.9673 6.36587 11.075 6.9125 11.075C7.45913 11.075 8.0004 10.9673 8.50542 10.7581C9.01044 10.549 9.46931 10.2424 9.85583 9.85583C10.2424 9.46931 10.549 9.01044 10.7581 8.50542C10.9673 8.0004 11.075 7.45913 11.075 6.9125C11.075 5.80854 10.6365 4.74979 9.85583 3.96917C9.07521 3.18855 8.01646 2.75 6.9125 2.75C5.80854 2.75 4.74979 3.18855 3.96917 3.96917C3.18855 4.74979 2.75 5.80854 2.75 6.9125Z" stroke="#F59F0A" stroke-width="1.58571" stroke-linecap="round" stroke-linejoin="round"/>
</svg>
