<svg width="353" height="181" viewBox="0 0 353 181" fill="none" xmlns="http://www.w3.org/2000/svg">
<g filter="url(#filter0_dd_347_14700)">
<g clip-path="url(#clip0_347_14700)">
<path fill-rule="evenodd" clip-rule="evenodd" d="M73 6.34375H77V1H328C339.046 1 348 9.95431 348 21V152C348 163.046 339.046 172 328 172H77V166.656H73V172H25C13.9543 172 5 163.046 5 152V149C11.6274 149 17 143.627 17 137C17 130.373 11.6274 125 5 125V115C11.6274 115 17 109.627 17 103C17 96.3726 11.6274 91 5 91V81C11.6274 81 17 75.6274 17 69C17 62.3726 11.6274 57 5 57V47C11.6274 47 17 41.6274 17 35C17 28.3726 11.6274 23 5 23V21C5 9.95431 13.9543 1 25 1H73V6.34375ZM73 155.969H77V145.281H73V155.969ZM73 134.594H77V123.906H73V134.594ZM73 113.219H77V102.531H73V113.219ZM73 91.8438H77V81.1562H73V91.8438ZM73 70.4688H77V59.7812H73V70.4688ZM73 49.0938H77V38.4062H73V49.0938ZM73 27.7188H77V17.0312H73V27.7188Z" fill="#279142"/>
<path d="M49 136.789H34.6V132.199C34.6 132.079 34.6033 131.843 34.61 131.489C34.6167 131.129 34.64 130.783 34.68 130.449C34.8267 129.309 35.2333 128.346 35.9 127.559C36.56 126.766 37.4033 126.166 38.43 125.759C39.4567 125.353 40.58 125.149 41.8 125.149C43.02 125.149 44.1433 125.353 45.17 125.759C46.1967 126.166 47.0433 126.766 47.71 127.559C48.37 128.346 48.7733 129.309 48.92 130.449C48.96 130.776 48.9833 131.119 48.99 131.479C48.9967 131.839 49 132.079 49 132.199V136.789ZM46.73 134.339V132.199C46.73 131.999 46.7233 131.746 46.71 131.439C46.6967 131.126 46.6667 130.849 46.62 130.609C46.4933 129.929 46.19 129.376 45.71 128.949C45.23 128.523 44.6467 128.209 43.96 128.009C43.2733 127.803 42.5533 127.699 41.8 127.699C41.02 127.699 40.2867 127.803 39.6 128.009C38.9133 128.216 38.3367 128.536 37.87 128.969C37.4033 129.396 37.1067 129.943 36.98 130.609C36.9267 130.849 36.8967 131.126 36.89 131.439C36.8767 131.746 36.87 131.999 36.87 132.199V134.339H46.73ZM49 122.586H34.6V120.176H49V122.586ZM49.3 111.85C49.3 112.903 49.1167 113.853 48.75 114.7C48.3833 115.54 47.86 116.233 47.18 116.78C46.4933 117.32 45.68 117.663 44.74 117.81L44.36 115.31C45.2133 115.097 45.8733 114.66 46.34 114C46.8067 113.333 47.04 112.567 47.04 111.7C47.04 111.187 46.96 110.703 46.8 110.25C46.64 109.797 46.4067 109.43 46.1 109.15C45.7933 108.863 45.4167 108.72 44.97 108.72C44.77 108.72 44.5867 108.753 44.42 108.82C44.2467 108.887 44.0933 108.987 43.96 109.12C43.8267 109.247 43.7067 109.413 43.6 109.62C43.4867 109.82 43.39 110.053 43.31 110.32L42.21 114.04C42.1167 114.36 41.9933 114.707 41.84 115.08C41.68 115.447 41.4633 115.797 41.19 116.13C40.91 116.457 40.5567 116.727 40.13 116.94C39.6967 117.147 39.1633 117.25 38.53 117.25C37.6033 117.25 36.8267 117.017 36.2 116.55C35.5667 116.077 35.0933 115.443 34.78 114.65C34.4667 113.85 34.3133 112.963 34.32 111.99C34.3267 111.003 34.4967 110.123 34.83 109.35C35.1567 108.577 35.6333 107.93 36.26 107.41C36.8867 106.89 37.6433 106.523 38.53 106.31L38.98 108.9C38.4733 109.007 38.0433 109.213 37.69 109.52C37.33 109.82 37.0567 110.19 36.87 110.63C36.6833 111.063 36.5833 111.527 36.57 112.02C36.5633 112.5 36.6367 112.947 36.79 113.36C36.9367 113.767 37.15 114.097 37.43 114.35C37.71 114.597 38.0367 114.72 38.41 114.72C38.7633 114.72 39.0533 114.613 39.28 114.4C39.5 114.187 39.6767 113.923 39.81 113.61C39.9367 113.29 40.0433 112.967 40.13 112.64L40.85 110.06C40.9433 109.707 41.07 109.31 41.23 108.87C41.39 108.43 41.6133 108.007 41.9 107.6C42.1867 107.193 42.5633 106.86 43.03 106.6C43.4967 106.333 44.09 106.2 44.81 106.2C45.5567 106.2 46.2133 106.357 46.78 106.67C47.34 106.977 47.8067 107.393 48.18 107.92C48.5533 108.447 48.8333 109.05 49.02 109.73C49.2067 110.403 49.3 111.11 49.3 111.85ZM49.3 97.9455C49.3 99.3855 48.9867 100.619 48.36 101.646C47.7267 102.672 46.8467 103.462 45.72 104.016C44.5933 104.562 43.2867 104.836 41.8 104.836C40.3133 104.836 39.0067 104.562 37.88 104.016C36.7533 103.462 35.8767 102.672 35.25 101.646C34.6167 100.619 34.3 99.3855 34.3 97.9455C34.3 96.2855 34.7167 94.9022 35.55 93.7955C36.3767 92.6889 37.4933 91.9122 38.9 91.4655L39.57 93.8955C38.63 94.1755 37.8967 94.6522 37.37 95.3255C36.8367 95.9989 36.57 96.8722 36.57 97.9455C36.57 98.9122 36.7867 99.7189 37.22 100.366C37.6533 101.006 38.2633 101.489 39.05 101.816C39.83 102.136 40.7467 102.299 41.8 102.306C42.8533 102.306 43.7733 102.146 44.56 101.826C45.34 101.499 45.9467 101.012 46.38 100.366C46.8133 99.7189 47.03 98.9122 47.03 97.9455C47.03 96.8722 46.7633 95.9989 46.23 95.3255C45.6967 94.6522 44.9633 94.1755 44.03 93.8955L44.7 91.4655C46.1067 91.9122 47.2267 92.6889 48.06 93.7955C48.8867 94.9022 49.3 96.2855 49.3 97.9455ZM49.3 83.1799C49.3 84.6199 48.9867 85.8533 48.36 86.8799C47.7267 87.9066 46.8467 88.6966 45.72 89.2499C44.5933 89.7966 43.2867 90.0699 41.8 90.0699C40.3133 90.0699 39.0067 89.7966 37.88 89.2499C36.7533 88.6966 35.8767 87.9066 35.25 86.8799C34.6167 85.8533 34.3 84.6199 34.3 83.1799C34.3 81.7399 34.6167 80.5066 35.25 79.4799C35.8767 78.4466 36.7533 77.6566 37.88 77.1099C39.0067 76.5566 40.3133 76.2799 41.8 76.2799C43.2867 76.2799 44.5933 76.5566 45.72 77.1099C46.8467 77.6566 47.7267 78.4466 48.36 79.4799C48.9867 80.5066 49.3 81.7399 49.3 83.1799ZM47.03 83.1799C47.0367 82.2133 46.8233 81.4099 46.39 80.7699C45.9567 80.1233 45.3467 79.6399 44.56 79.3199C43.7733 78.9933 42.8533 78.8299 41.8 78.8299C40.7467 78.8299 39.8333 78.9933 39.06 79.3199C38.28 79.6399 37.6733 80.1233 37.24 80.7699C36.8067 81.4099 36.5833 82.2133 36.57 83.1799C36.5633 84.1466 36.7767 84.9499 37.21 85.5899C37.6433 86.2299 38.2533 86.7133 39.04 87.0399C39.8267 87.3599 40.7467 87.5199 41.8 87.5199C42.8533 87.5199 43.77 87.3599 44.55 87.0399C45.3233 86.7199 45.9267 86.2399 46.36 85.5999C46.7933 84.9533 47.0167 84.1466 47.03 83.1799ZM49.3 68.4895C49.3 69.6361 49.0667 70.6461 48.6 71.5195C48.1333 72.3861 47.4767 73.0661 46.63 73.5595C45.7833 74.0461 44.79 74.2895 43.65 74.2895H34.62L34.6 71.8495H43.59C44.13 71.8495 44.6133 71.7595 45.04 71.5795C45.4667 71.3928 45.83 71.1428 46.13 70.8295C46.4233 70.5161 46.6467 70.1561 46.8 69.7495C46.9533 69.3428 47.03 68.9228 47.03 68.4895C47.03 68.0428 46.9533 67.6195 46.8 67.2195C46.64 66.8128 46.4133 66.4528 46.12 66.1395C45.82 65.8261 45.4567 65.5795 45.03 65.3995C44.6033 65.2195 44.1233 65.1295 43.59 65.1295H34.6V62.6895H43.65C44.79 62.6895 45.7833 62.9361 46.63 63.4295C47.4767 63.9161 48.1333 64.5961 48.6 65.4695C49.0667 66.3361 49.3 67.3428 49.3 68.4895ZM49 59.8949H34.6V57.4549L44.75 50.7749H34.6V48.3349H49V50.7749L38.85 57.4549H49V59.8949ZM49 42.0795H36.86V46.7395H34.6V35.0095H36.86V39.6695H49V42.0795Z" fill="white"/>
<rect width="271" height="171" transform="translate(77 1)" fill="white"/>
<path d="M89.98 55.5V45.42H94.054C94.152 45.42 94.2733 45.4247 94.418 45.434C94.5627 45.4387 94.7003 45.4527 94.831 45.476C95.391 45.5647 95.8577 45.756 96.231 46.05C96.609 46.344 96.8913 46.715 97.078 47.163C97.2647 47.611 97.358 48.1057 97.358 48.647C97.358 49.4497 97.1527 50.1427 96.742 50.726C96.3313 51.3047 95.7153 51.6663 94.894 51.811L94.299 51.881H91.443V55.5H89.98ZM95.874 55.5L93.886 51.398L95.363 51.02L97.547 55.5H95.874ZM91.443 50.495H93.998C94.0913 50.495 94.194 50.4903 94.306 50.481C94.4227 50.4717 94.5323 50.4553 94.635 50.432C94.9337 50.362 95.174 50.2337 95.356 50.047C95.538 49.8557 95.6687 49.6363 95.748 49.389C95.8273 49.1417 95.867 48.8943 95.867 48.647C95.867 48.3997 95.8273 48.1547 95.748 47.912C95.6687 47.6647 95.538 47.4477 95.356 47.261C95.174 47.0697 94.9337 46.939 94.635 46.869C94.5323 46.841 94.4227 46.8223 94.306 46.813C94.194 46.8037 94.0913 46.799 93.998 46.799H91.443V50.495ZM99.0855 55.5V45.42H100.408L104.062 53.001L107.695 45.42H109.032V55.493H107.646V48.598L104.391 55.5H103.726L100.464 48.598V55.5H99.0855ZM115.553 55.5V47.03L113.656 48.185V46.554L115.553 45.42H117.044V55.5H115.553ZM123.217 55.71C122.531 55.71 121.924 55.5607 121.397 55.262C120.869 54.9587 120.454 54.5433 120.151 54.016C119.852 53.4887 119.703 52.882 119.703 52.196V48.724C119.703 48.038 119.852 47.4313 120.151 46.904C120.454 46.3767 120.869 45.9637 121.397 45.665C121.924 45.3617 122.531 45.21 123.217 45.21C123.903 45.21 124.509 45.3617 125.037 45.665C125.564 45.9637 125.977 46.3767 126.276 46.904C126.579 47.4313 126.731 48.038 126.731 48.724V52.196C126.731 52.882 126.579 53.4887 126.276 54.016C125.977 54.5433 125.564 54.9587 125.037 55.262C124.509 55.5607 123.903 55.71 123.217 55.71ZM123.217 54.31C123.59 54.31 123.928 54.2213 124.232 54.044C124.54 53.862 124.785 53.6193 124.967 53.316C125.149 53.008 125.24 52.665 125.24 52.287V48.619C125.24 48.2457 125.149 47.9073 124.967 47.604C124.785 47.296 124.54 47.0533 124.232 46.876C123.928 46.694 123.59 46.603 123.217 46.603C122.843 46.603 122.503 46.694 122.195 46.876C121.891 47.0533 121.649 47.296 121.467 47.604C121.285 47.9073 121.194 48.2457 121.194 48.619V52.287C121.194 52.665 121.285 53.008 121.467 53.316C121.649 53.6193 121.891 53.862 122.195 54.044C122.503 54.2213 122.843 54.31 123.217 54.31ZM135.695 55.71C134.687 55.71 133.828 55.4907 133.119 55.052C132.409 54.6087 131.866 53.9927 131.488 53.204C131.114 52.4153 130.928 51.5007 130.928 50.46C130.928 49.4193 131.114 48.5047 131.488 47.716C131.866 46.9273 132.409 46.3137 133.119 45.875C133.828 45.4317 134.687 45.21 135.695 45.21C136.698 45.21 137.554 45.4317 138.264 45.875C138.978 46.3137 139.521 46.9273 139.895 47.716C140.268 48.5047 140.455 49.4193 140.455 50.46C140.455 51.5007 140.268 52.4153 139.895 53.204C139.521 53.9927 138.978 54.6087 138.264 55.052C137.554 55.4907 136.698 55.71 135.695 55.71ZM135.695 54.317C136.409 54.3263 137.001 54.17 137.473 53.848C137.949 53.5213 138.306 53.0687 138.544 52.49C138.782 51.9067 138.901 51.23 138.901 50.46C138.901 49.69 138.782 49.018 138.544 48.444C138.306 47.8653 137.949 47.415 137.473 47.093C137.001 46.771 136.409 46.6077 135.695 46.603C134.981 46.5937 134.386 46.75 133.91 47.072C133.438 47.394 133.084 47.8467 132.846 48.43C132.608 49.0133 132.486 49.69 132.482 50.46C132.477 51.23 132.594 51.9043 132.832 52.483C133.07 53.057 133.427 53.505 133.903 53.827C134.383 54.149 134.981 54.3123 135.695 54.317ZM142.544 55.5V47.674C142.544 47.4827 142.551 47.2797 142.565 47.065C142.579 46.8457 142.619 46.631 142.684 46.421C142.754 46.2063 142.868 46.0103 143.027 45.833C143.218 45.623 143.428 45.4737 143.657 45.385C143.886 45.2963 144.112 45.245 144.336 45.231C144.565 45.217 144.775 45.21 144.966 45.21H145.918V46.414H145.036C144.691 46.414 144.432 46.5003 144.259 46.673C144.091 46.841 144.007 47.0813 144.007 47.394V55.5H142.544ZM141.291 49.116V47.94H145.918V49.116H141.291ZM147.122 55.5V47.674C147.122 47.4827 147.129 47.2797 147.143 47.065C147.157 46.8457 147.197 46.631 147.262 46.421C147.332 46.2063 147.446 46.0103 147.605 45.833C147.796 45.623 148.006 45.4737 148.235 45.385C148.464 45.2963 148.69 45.245 148.914 45.231C149.143 45.217 149.353 45.21 149.544 45.21H150.496V46.414H149.614C149.269 46.414 149.01 46.5003 148.837 46.673C148.669 46.841 148.585 47.0813 148.585 47.394V55.5H147.122ZM145.869 49.116V47.94H150.496V49.116H145.869Z" fill="#5B5760"/>
<path d="M90.26 82.5V69.54H98.063V71.709H92.429V74.94H96.983V77.1H92.429V82.5H90.26ZM99.8619 82.5V69.54H102.031V82.5H99.8619ZM104.727 82.5V69.54H106.923L112.935 78.675V69.54H115.131V82.5H112.935L106.923 73.365V82.5H104.727ZM117.647 82.5V69.54H125.45V71.709H119.816V74.94H124.37V77.1H119.816V82.5H117.647ZM127.249 82.5V69.54H129.418V82.5H127.249ZM132.114 82.5V69.54H137.469C137.595 69.54 137.757 69.546 137.955 69.558C138.153 69.564 138.336 69.582 138.504 69.612C139.254 69.726 139.872 69.975 140.358 70.359C140.85 70.743 141.213 71.229 141.447 71.817C141.687 72.399 141.807 73.047 141.807 73.761C141.807 74.817 141.54 75.726 141.006 76.488C140.472 77.244 139.653 77.712 138.549 77.892L137.622 77.973H134.283V82.5H132.114ZM139.557 82.5L137.001 77.226L139.206 76.74L142.014 82.5H139.557ZM134.283 75.948H137.379C137.499 75.948 137.634 75.942 137.784 75.93C137.934 75.918 138.072 75.894 138.198 75.858C138.558 75.768 138.84 75.609 139.044 75.381C139.254 75.153 139.401 74.895 139.485 74.607C139.575 74.319 139.62 74.037 139.62 73.761C139.62 73.485 139.575 73.203 139.485 72.915C139.401 72.621 139.254 72.36 139.044 72.132C138.84 71.904 138.558 71.745 138.198 71.655C138.072 71.619 137.934 71.598 137.784 71.592C137.634 71.58 137.499 71.574 137.379 71.574H134.283V75.948ZM148.793 82.77C147.845 82.77 146.99 82.605 146.228 82.275C145.472 81.945 144.848 81.474 144.356 80.862C143.87 80.244 143.561 79.512 143.429 78.666L145.679 78.324C145.871 79.092 146.264 79.686 146.858 80.106C147.458 80.526 148.148 80.736 148.928 80.736C149.39 80.736 149.825 80.664 150.233 80.52C150.641 80.376 150.971 80.166 151.223 79.89C151.481 79.614 151.61 79.275 151.61 78.873C151.61 78.693 151.58 78.528 151.52 78.378C151.46 78.222 151.37 78.084 151.25 77.964C151.136 77.844 150.986 77.736 150.8 77.64C150.62 77.538 150.41 77.451 150.17 77.379L146.822 76.389C146.534 76.305 146.222 76.194 145.886 76.056C145.556 75.912 145.241 75.717 144.941 75.471C144.647 75.219 144.404 74.901 144.212 74.517C144.026 74.127 143.933 73.647 143.933 73.077C143.933 72.243 144.143 71.544 144.563 70.98C144.989 70.41 145.559 69.984 146.273 69.702C146.993 69.42 147.791 69.282 148.667 69.288C149.555 69.294 150.347 69.447 151.043 69.747C151.739 70.041 152.321 70.47 152.789 71.034C153.257 71.598 153.587 72.279 153.779 73.077L151.448 73.482C151.352 73.026 151.166 72.639 150.89 72.321C150.62 71.997 150.287 71.751 149.891 71.583C149.501 71.415 149.084 71.325 148.64 71.313C148.208 71.307 147.806 71.373 147.434 71.511C147.068 71.643 146.771 71.835 146.543 72.087C146.321 72.339 146.21 72.633 146.21 72.969C146.21 73.287 146.306 73.548 146.498 73.752C146.69 73.95 146.927 74.109 147.209 74.229C147.497 74.343 147.788 74.439 148.082 74.517L150.404 75.165C150.722 75.249 151.079 75.363 151.475 75.507C151.871 75.651 152.252 75.852 152.618 76.11C152.984 76.368 153.284 76.707 153.518 77.127C153.758 77.547 153.878 78.081 153.878 78.729C153.878 79.401 153.737 79.992 153.455 80.502C153.179 81.006 152.804 81.426 152.33 81.762C151.856 82.098 151.313 82.35 150.701 82.518C150.095 82.686 149.459 82.77 148.793 82.77ZM158.94 82.5V71.574H154.746V69.54H165.303V71.574H161.109V82.5H158.94ZM168.992 82.5V71.907L166.562 73.392V70.998L168.992 69.54H171.206V82.5H168.992ZM179.297 82.77C178.379 82.77 177.569 82.575 176.867 82.185C176.165 81.789 175.616 81.24 175.22 80.538C174.83 79.836 174.635 79.026 174.635 78.108V73.932C174.635 73.014 174.83 72.204 175.22 71.502C175.616 70.8 176.165 70.254 176.867 69.864C177.569 69.468 178.379 69.27 179.297 69.27C180.215 69.27 181.022 69.468 181.718 69.864C182.42 70.254 182.969 70.8 183.365 71.502C183.761 72.204 183.959 73.014 183.959 73.932V78.108C183.959 79.026 183.761 79.836 183.365 80.538C182.969 81.24 182.42 81.789 181.718 82.185C181.022 82.575 180.215 82.77 179.297 82.77ZM179.297 80.709C179.753 80.709 180.167 80.601 180.539 80.385C180.911 80.163 181.205 79.869 181.421 79.503C181.637 79.131 181.745 78.717 181.745 78.261V73.77C181.745 73.308 181.637 72.894 181.421 72.528C181.205 72.156 180.911 71.862 180.539 71.646C180.167 71.424 179.753 71.313 179.297 71.313C178.841 71.313 178.427 71.424 178.055 71.646C177.683 71.862 177.389 72.156 177.173 72.528C176.957 72.894 176.849 73.308 176.849 73.77V78.261C176.849 78.717 176.957 79.131 177.173 79.503C177.389 79.869 177.683 80.163 178.055 80.385C178.427 80.601 178.841 80.709 179.297 80.709Z" fill="#232027"/>
<rect x="304.5" y="49" width="31" height="31" rx="15.5" fill="white"/>
<rect x="304.5" y="49" width="31" height="31" rx="15.5" stroke="#ECE7F8"/>
<path d="M324.058 62.529C324.058 65.8587 321.359 68.558 318.029 68.558C314.699 68.558 312 65.8587 312 62.529C312 59.1993 314.699 56.5 318.029 56.5C321.359 56.5 324.058 59.1993 324.058 62.529Z" fill="#740000"/>
<path d="M329.333 67.8043C329.333 71.1341 326.634 73.8333 323.304 73.8333C319.975 73.8333 317.275 71.1341 317.275 67.8043C317.275 64.4746 319.975 61.7754 323.304 61.7754C326.634 61.7754 329.333 64.4746 329.333 67.8043Z" fill="#E5672C"/>
<path d="M89.84 108.5V99.86H90.812L94.076 106.742L97.322 99.86H98.306V108.494H97.292V102.206L94.358 108.5H93.788L90.854 102.206V108.5H89.84ZM100.108 100.874V99.77H101.176V100.874H100.108ZM100.108 108.5V102.02H101.176V108.5H100.108ZM107.591 108.5V105.254C107.591 104.946 107.563 104.65 107.507 104.366C107.455 104.082 107.361 103.828 107.225 103.604C107.093 103.376 106.913 103.196 106.685 103.064C106.461 102.932 106.177 102.866 105.833 102.866C105.565 102.866 105.321 102.912 105.101 103.004C104.885 103.092 104.699 103.228 104.543 103.412C104.387 103.596 104.265 103.828 104.177 104.108C104.093 104.384 104.051 104.71 104.051 105.086L103.349 104.87C103.349 104.242 103.461 103.704 103.685 103.256C103.913 102.804 104.231 102.458 104.639 102.218C105.051 101.974 105.535 101.852 106.091 101.852C106.511 101.852 106.869 101.918 107.165 102.05C107.461 102.182 107.707 102.358 107.903 102.578C108.099 102.794 108.253 103.038 108.365 103.31C108.477 103.578 108.555 103.852 108.599 104.132C108.647 104.408 108.671 104.67 108.671 104.918V108.5H107.591ZM102.971 108.5V102.02H103.931V103.754H104.051V108.5H102.971ZM110.423 108.5V107.324H111.599V108.5H110.423ZM118.933 108.68C118.321 108.68 117.769 108.576 117.277 108.368C116.789 108.16 116.385 107.864 116.065 107.48C115.749 107.092 115.543 106.634 115.447 106.106L116.551 105.932C116.691 106.476 116.981 106.902 117.421 107.21C117.865 107.514 118.387 107.666 118.987 107.666C119.375 107.666 119.725 107.606 120.037 107.486C120.353 107.362 120.603 107.186 120.787 106.958C120.971 106.73 121.063 106.46 121.063 106.148C121.063 105.956 121.029 105.792 120.961 105.656C120.897 105.516 120.807 105.398 120.691 105.302C120.579 105.202 120.451 105.118 120.307 105.05C120.163 104.982 120.013 104.926 119.857 104.882L117.655 104.228C117.415 104.156 117.183 104.066 116.959 103.958C116.735 103.846 116.535 103.708 116.359 103.544C116.183 103.376 116.043 103.176 115.939 102.944C115.835 102.708 115.783 102.43 115.783 102.11C115.783 101.598 115.915 101.162 116.179 100.802C116.447 100.438 116.809 100.16 117.265 99.968C117.721 99.776 118.235 99.682 118.807 99.686C119.387 99.69 119.905 99.794 120.361 99.998C120.821 100.198 121.201 100.486 121.501 100.862C121.805 101.238 122.009 101.688 122.113 102.212L120.979 102.41C120.919 102.058 120.785 101.756 120.577 101.504C120.373 101.248 120.117 101.052 119.809 100.916C119.501 100.776 119.163 100.704 118.795 100.7C118.443 100.696 118.125 100.752 117.841 100.868C117.557 100.984 117.331 101.146 117.163 101.354C116.995 101.558 116.911 101.794 116.911 102.062C116.911 102.326 116.987 102.54 117.139 102.704C117.291 102.864 117.477 102.992 117.697 103.088C117.921 103.18 118.139 103.256 118.351 103.316L119.995 103.79C120.183 103.842 120.399 103.914 120.643 104.006C120.891 104.098 121.131 104.228 121.363 104.396C121.595 104.56 121.787 104.78 121.939 105.056C122.091 105.328 122.167 105.672 122.167 106.088C122.167 106.504 122.083 106.874 121.915 107.198C121.751 107.522 121.521 107.794 121.225 108.014C120.929 108.23 120.585 108.394 120.193 108.506C119.801 108.622 119.381 108.68 118.933 108.68ZM126.402 108.68C125.794 108.68 125.282 108.53 124.866 108.23C124.45 107.926 124.134 107.516 123.918 107C123.706 106.48 123.6 105.898 123.6 105.254C123.6 104.602 123.706 104.018 123.918 103.502C124.134 102.986 124.45 102.58 124.866 102.284C125.286 101.988 125.8 101.84 126.408 101.84C127.008 101.84 127.524 101.99 127.956 102.29C128.392 102.586 128.726 102.992 128.958 103.508C129.19 104.024 129.306 104.606 129.306 105.254C129.306 105.902 129.19 106.484 128.958 107C128.726 107.516 128.392 107.926 127.956 108.23C127.524 108.53 127.006 108.68 126.402 108.68ZM123.42 111.38V102.02H124.374V106.79H124.494V111.38H123.42ZM126.27 107.702C126.698 107.702 127.052 107.594 127.332 107.378C127.612 107.162 127.822 106.87 127.962 106.502C128.102 106.13 128.172 105.714 128.172 105.254C128.172 104.798 128.102 104.386 127.962 104.018C127.826 103.65 127.614 103.358 127.326 103.142C127.042 102.926 126.68 102.818 126.24 102.818C125.82 102.818 125.472 102.922 125.196 103.13C124.92 103.334 124.714 103.62 124.578 103.988C124.442 104.352 124.374 104.774 124.374 105.254C124.374 105.726 124.44 106.148 124.572 106.52C124.708 106.888 124.916 107.178 125.196 107.39C125.476 107.598 125.834 107.702 126.27 107.702ZM133.429 108.68C132.793 108.68 132.237 108.54 131.761 108.26C131.289 107.976 130.921 107.582 130.657 107.078C130.393 106.57 130.261 105.978 130.261 105.302C130.261 104.594 130.391 103.982 130.651 103.466C130.911 102.946 131.273 102.546 131.737 102.266C132.205 101.982 132.753 101.84 133.381 101.84C134.033 101.84 134.587 101.99 135.043 102.29C135.503 102.59 135.847 103.018 136.075 103.574C136.307 104.13 136.407 104.792 136.375 105.56H135.295V105.176C135.283 104.38 135.121 103.786 134.809 103.394C134.497 102.998 134.033 102.8 133.417 102.8C132.757 102.8 132.255 103.012 131.911 103.436C131.567 103.86 131.395 104.468 131.395 105.26C131.395 106.024 131.567 106.616 131.911 107.036C132.255 107.456 132.745 107.666 133.381 107.666C133.809 107.666 134.181 107.568 134.497 107.372C134.813 107.176 135.061 106.894 135.241 106.526L136.267 106.88C136.015 107.452 135.635 107.896 135.127 108.212C134.623 108.524 134.057 108.68 133.429 108.68ZM131.035 105.56V104.702H135.823V105.56H131.035ZM142.149 108.5V105.254C142.149 104.946 142.121 104.65 142.065 104.366C142.013 104.082 141.919 103.828 141.783 103.604C141.651 103.376 141.471 103.196 141.243 103.064C141.019 102.932 140.735 102.866 140.391 102.866C140.123 102.866 139.879 102.912 139.659 103.004C139.443 103.092 139.257 103.228 139.101 103.412C138.945 103.596 138.823 103.828 138.735 104.108C138.651 104.384 138.609 104.71 138.609 105.086L137.907 104.87C137.907 104.242 138.019 103.704 138.243 103.256C138.471 102.804 138.789 102.458 139.197 102.218C139.609 101.974 140.093 101.852 140.649 101.852C141.069 101.852 141.427 101.918 141.723 102.05C142.019 102.182 142.265 102.358 142.461 102.578C142.657 102.794 142.811 103.038 142.923 103.31C143.035 103.578 143.113 103.852 143.157 104.132C143.205 104.408 143.229 104.67 143.229 104.918V108.5H142.149ZM137.529 108.5V102.02H138.489V103.754H138.609V108.5H137.529ZM147.275 108.68C146.671 108.68 146.153 108.53 145.721 108.23C145.289 107.926 144.955 107.516 144.719 107C144.487 106.484 144.371 105.902 144.371 105.254C144.371 104.606 144.487 104.024 144.719 103.508C144.955 102.992 145.289 102.586 145.721 102.29C146.153 101.99 146.669 101.84 147.269 101.84C147.881 101.84 148.395 101.988 148.811 102.284C149.227 102.58 149.541 102.986 149.753 103.502C149.969 104.018 150.077 104.602 150.077 105.254C150.077 105.898 149.969 106.48 149.753 107C149.541 107.516 149.227 107.926 148.811 108.23C148.395 108.53 147.883 108.68 147.275 108.68ZM147.407 107.702C147.843 107.702 148.201 107.598 148.481 107.39C148.761 107.178 148.967 106.888 149.099 106.52C149.235 106.148 149.303 105.726 149.303 105.254C149.303 104.774 149.235 104.352 149.099 103.988C148.967 103.62 148.763 103.334 148.487 103.13C148.211 102.922 147.861 102.818 147.437 102.818C146.997 102.818 146.633 102.926 146.345 103.142C146.061 103.358 145.849 103.65 145.709 104.018C145.573 104.386 145.505 104.798 145.505 105.254C145.505 105.714 145.575 106.13 145.715 106.502C145.855 106.87 146.065 107.162 146.345 107.378C146.629 107.594 146.983 107.702 147.407 107.702ZM149.303 108.5V103.73H149.183V99.86H150.257V108.5H149.303ZM154.34 108.5V99.86H157.754C157.838 99.86 157.938 99.864 158.054 99.872C158.17 99.876 158.282 99.888 158.39 99.908C158.858 99.98 159.25 100.14 159.566 100.388C159.886 100.636 160.126 100.95 160.286 101.33C160.446 101.706 160.526 102.124 160.526 102.584C160.526 103.252 160.352 103.832 160.004 104.324C159.656 104.812 159.146 105.118 158.474 105.242L158.066 105.308H155.408V108.5H154.34ZM159.482 108.5L157.778 104.984L158.834 104.66L160.706 108.5H159.482ZM155.408 104.294H157.718C157.794 104.294 157.88 104.29 157.976 104.282C158.076 104.274 158.17 104.26 158.258 104.24C158.534 104.176 158.758 104.06 158.93 103.892C159.106 103.72 159.234 103.52 159.314 103.292C159.394 103.06 159.434 102.824 159.434 102.584C159.434 102.344 159.394 102.11 159.314 101.882C159.234 101.65 159.106 101.448 158.93 101.276C158.758 101.104 158.534 100.988 158.258 100.928C158.17 100.904 158.076 100.89 157.976 100.886C157.88 100.878 157.794 100.874 157.718 100.874H155.408V104.294ZM162.028 108.5V99.86H163L166.264 106.742L169.51 99.86H170.494V108.494H169.48V102.206L166.546 108.5H165.976L163.042 102.206V108.5H162.028ZM177.524 108.68C176.976 108.68 176.478 108.548 176.03 108.284C175.586 108.02 175.232 107.66 174.968 107.204C174.708 106.744 174.578 106.226 174.578 105.65V102.776C174.578 102.172 174.708 101.638 174.968 101.174C175.232 100.706 175.592 100.342 176.048 100.082C176.508 99.818 177.032 99.686 177.62 99.686C178.096 99.686 178.538 99.784 178.946 99.98C179.358 100.172 179.704 100.45 179.984 100.814L179.186 101.522C179.014 101.27 178.79 101.07 178.514 100.922C178.238 100.774 177.94 100.7 177.62 100.7C177.24 100.7 176.902 100.792 176.606 100.976C176.314 101.156 176.084 101.396 175.916 101.696C175.748 101.992 175.664 102.312 175.664 102.656V104.39L175.43 104.126C175.682 103.766 176.002 103.478 176.39 103.262C176.778 103.046 177.198 102.938 177.65 102.938C178.186 102.938 178.666 103.064 179.09 103.316C179.518 103.568 179.854 103.91 180.098 104.342C180.346 104.77 180.47 105.252 180.47 105.788C180.47 106.324 180.336 106.81 180.068 107.246C179.8 107.682 179.442 108.03 178.994 108.29C178.55 108.55 178.06 108.68 177.524 108.68ZM177.524 107.648C177.868 107.648 178.182 107.566 178.466 107.402C178.75 107.234 178.974 107.01 179.138 106.73C179.306 106.446 179.39 106.132 179.39 105.788C179.39 105.444 179.306 105.13 179.138 104.846C178.974 104.562 178.75 104.338 178.466 104.174C178.186 104.006 177.874 103.922 177.53 103.922C177.186 103.922 176.872 104.006 176.588 104.174C176.308 104.338 176.084 104.562 175.916 104.846C175.748 105.13 175.664 105.444 175.664 105.788C175.664 106.128 175.746 106.44 175.91 106.724C176.078 107.004 176.302 107.228 176.582 107.396C176.866 107.564 177.18 107.648 177.524 107.648ZM184.947 108.68C184.387 108.68 183.887 108.554 183.447 108.302C183.011 108.046 182.665 107.7 182.409 107.264C182.157 106.824 182.031 106.324 182.031 105.764V102.596C182.031 102.036 182.157 101.536 182.409 101.096C182.665 100.656 183.011 100.31 183.447 100.058C183.887 99.806 184.387 99.68 184.947 99.68C185.507 99.68 186.007 99.806 186.447 100.058C186.887 100.31 187.233 100.656 187.485 101.096C187.737 101.536 187.863 102.036 187.863 102.596V105.764C187.863 106.324 187.737 106.824 187.485 107.264C187.233 107.7 186.887 108.046 186.447 108.302C186.007 108.554 185.507 108.68 184.947 108.68ZM184.947 107.654C185.287 107.654 185.595 107.572 185.871 107.408C186.147 107.244 186.367 107.024 186.531 106.748C186.695 106.468 186.777 106.16 186.777 105.824V102.53C186.777 102.19 186.695 101.882 186.531 101.606C186.367 101.33 186.147 101.11 185.871 100.946C185.595 100.782 185.287 100.7 184.947 100.7C184.611 100.7 184.303 100.782 184.023 100.946C183.747 101.11 183.527 101.33 183.363 101.606C183.199 101.882 183.117 102.19 183.117 102.53V105.824C183.117 106.16 183.199 106.468 183.363 106.748C183.527 107.024 183.747 107.244 184.023 107.408C184.303 107.572 184.611 107.654 184.947 107.654Z" fill="#393540"/>
<path d="M90.656 123.928L89.87 123.358L90.8 122.188L89.36 121.768L89.66 120.844L91.064 121.366L91.01 119.86H91.982L91.928 121.366L93.332 120.844L93.632 121.768L92.192 122.188L93.116 123.358L92.33 123.928L91.496 122.692L90.656 123.928ZM97.4215 128.5V120.874H94.4755V119.86H101.435V120.874H98.4895V128.5H97.4215ZM104.238 128.68C103.602 128.68 103.046 128.54 102.57 128.26C102.098 127.976 101.73 127.582 101.466 127.078C101.202 126.57 101.07 125.978 101.07 125.302C101.07 124.594 101.2 123.982 101.46 123.466C101.72 122.946 102.082 122.546 102.546 122.266C103.014 121.982 103.562 121.84 104.19 121.84C104.842 121.84 105.396 121.99 105.852 122.29C106.312 122.59 106.656 123.018 106.884 123.574C107.116 124.13 107.216 124.792 107.184 125.56H106.104V125.176C106.092 124.38 105.93 123.786 105.618 123.394C105.306 122.998 104.842 122.8 104.226 122.8C103.566 122.8 103.064 123.012 102.72 123.436C102.376 123.86 102.204 124.468 102.204 125.26C102.204 126.024 102.376 126.616 102.72 127.036C103.064 127.456 103.554 127.666 104.19 127.666C104.618 127.666 104.99 127.568 105.306 127.372C105.622 127.176 105.87 126.894 106.05 126.526L107.076 126.88C106.824 127.452 106.444 127.896 105.936 128.212C105.432 128.524 104.866 128.68 104.238 128.68ZM101.844 125.56V124.702H106.632V125.56H101.844ZM108.52 128.5V122.02H109.474V123.586L109.318 123.382C109.394 123.182 109.492 122.998 109.612 122.83C109.736 122.662 109.874 122.524 110.026 122.416C110.194 122.28 110.384 122.176 110.596 122.104C110.808 122.032 111.024 121.99 111.244 121.978C111.464 121.962 111.67 121.976 111.862 122.02V123.022C111.638 122.962 111.392 122.946 111.124 122.974C110.856 123.002 110.608 123.1 110.38 123.268C110.172 123.416 110.01 123.596 109.894 123.808C109.782 124.02 109.704 124.25 109.66 124.498C109.616 124.742 109.594 124.992 109.594 125.248V128.5H108.52ZM120.742 128.5L120.748 124.354C120.748 123.87 120.618 123.492 120.358 123.22C120.102 122.944 119.768 122.806 119.356 122.806C119.116 122.806 118.888 122.862 118.672 122.974C118.456 123.082 118.28 123.254 118.144 123.49C118.008 123.722 117.94 124.02 117.94 124.384L117.376 124.156C117.368 123.696 117.462 123.294 117.658 122.95C117.858 122.602 118.13 122.332 118.474 122.14C118.818 121.948 119.206 121.852 119.638 121.852C120.314 121.852 120.846 122.058 121.234 122.47C121.622 122.878 121.816 123.428 121.816 124.12L121.81 128.5H120.742ZM112.99 128.5V122.02H113.944V123.754H114.064V128.5H112.99ZM116.872 128.5L116.878 124.396C116.878 123.9 116.75 123.512 116.494 123.232C116.238 122.948 115.898 122.806 115.474 122.806C115.054 122.806 114.714 122.95 114.454 123.238C114.194 123.526 114.064 123.908 114.064 124.384L113.5 124.048C113.5 123.628 113.6 123.252 113.8 122.92C114 122.588 114.272 122.328 114.616 122.14C114.96 121.948 115.35 121.852 115.786 121.852C116.222 121.852 116.602 121.944 116.926 122.128C117.25 122.312 117.5 122.576 117.676 122.92C117.852 123.26 117.94 123.666 117.94 124.138L117.934 128.5H116.872ZM125.827 128.674C125.055 128.674 124.421 128.506 123.925 128.17C123.433 127.83 123.131 127.356 123.019 126.748L124.111 126.574C124.199 126.926 124.401 127.206 124.717 127.414C125.033 127.618 125.425 127.72 125.893 127.72C126.337 127.72 126.685 127.628 126.937 127.444C127.189 127.26 127.315 127.01 127.315 126.694C127.315 126.51 127.273 126.362 127.189 126.25C127.105 126.134 126.931 126.026 126.667 125.926C126.407 125.826 126.013 125.706 125.485 125.566C124.913 125.414 124.463 125.256 124.135 125.092C123.807 124.928 123.573 124.738 123.433 124.522C123.293 124.306 123.223 124.044 123.223 123.736C123.223 123.356 123.327 123.024 123.535 122.74C123.743 122.452 124.033 122.23 124.405 122.074C124.781 121.918 125.217 121.84 125.713 121.84C126.205 121.84 126.645 121.918 127.033 122.074C127.421 122.23 127.733 122.452 127.969 122.74C128.209 123.024 128.351 123.356 128.395 123.736L127.303 123.934C127.251 123.586 127.083 123.312 126.799 123.112C126.519 122.912 126.157 122.806 125.713 122.794C125.293 122.778 124.951 122.852 124.687 123.016C124.427 123.18 124.297 123.402 124.297 123.682C124.297 123.838 124.345 123.972 124.441 124.084C124.541 124.196 124.723 124.302 124.987 124.402C125.255 124.502 125.643 124.616 126.151 124.744C126.723 124.888 127.173 125.046 127.501 125.218C127.833 125.386 128.069 125.586 128.209 125.818C128.349 126.046 128.419 126.328 128.419 126.664C128.419 127.288 128.189 127.78 127.729 128.14C127.269 128.496 126.635 128.674 125.827 128.674ZM134.953 128.68C134.473 128.68 134.025 128.61 133.609 128.47C133.193 128.33 132.845 128.11 132.565 127.81C132.349 127.57 132.187 127.306 132.079 127.018C131.975 126.726 131.917 126.418 131.905 126.094C131.905 125.778 131.951 125.47 132.043 125.17C132.135 124.866 132.281 124.596 132.481 124.36C132.585 124.232 132.701 124.124 132.829 124.036C132.961 123.944 133.093 123.866 133.225 123.802C132.949 123.506 132.737 123.228 132.589 122.968C132.445 122.708 132.373 122.394 132.373 122.026C132.373 121.558 132.493 121.136 132.733 120.76C132.977 120.38 133.309 120.102 133.729 119.926C133.933 119.838 134.141 119.778 134.353 119.746C134.569 119.71 134.779 119.692 134.983 119.692C135.327 119.692 135.661 119.74 135.985 119.836C136.309 119.932 136.585 120.088 136.813 120.304C136.965 120.432 137.095 120.58 137.203 120.748C137.311 120.912 137.395 121.084 137.455 121.264L136.411 121.534C136.335 121.33 136.209 121.158 136.033 121.018C135.893 120.898 135.729 120.816 135.541 120.772C135.357 120.728 135.171 120.706 134.983 120.706C134.671 120.706 134.389 120.766 134.137 120.886C133.913 120.994 133.745 121.146 133.633 121.342C133.521 121.534 133.465 121.762 133.465 122.026C133.465 122.254 133.503 122.442 133.579 122.59C133.659 122.734 133.769 122.888 133.909 123.052C133.993 123.14 134.087 123.234 134.191 123.334C134.299 123.43 134.409 123.53 134.521 123.634L137.065 125.998C137.077 125.898 137.085 125.796 137.089 125.692C137.093 125.588 137.095 125.488 137.095 125.392L137.089 124.198H138.067V125.602C138.067 125.886 138.057 126.128 138.037 126.328C138.021 126.528 137.993 126.694 137.953 126.826L139.051 127.84L138.355 128.584L137.443 127.72C137.287 127.896 137.101 128.05 136.885 128.182C136.669 128.314 136.453 128.414 136.237 128.482C136.033 128.558 135.823 128.61 135.607 128.638C135.391 128.666 135.173 128.68 134.953 128.68ZM134.977 127.654C135.173 127.654 135.351 127.642 135.511 127.618C135.671 127.594 135.823 127.548 135.967 127.48C136.159 127.388 136.307 127.3 136.411 127.216C136.515 127.132 136.601 127.054 136.669 126.982L134.035 124.57C133.891 124.618 133.755 124.682 133.627 124.762C133.503 124.842 133.395 124.936 133.303 125.044C133.199 125.172 133.121 125.322 133.069 125.494C133.021 125.666 132.997 125.848 132.997 126.04C133.001 126.244 133.035 126.432 133.099 126.604C133.163 126.776 133.253 126.93 133.369 127.066C133.545 127.27 133.783 127.42 134.083 127.516C134.383 127.608 134.681 127.654 134.977 127.654ZM145.164 128.68C144.508 128.68 143.95 128.534 143.49 128.242C143.034 127.946 142.686 127.54 142.446 127.024C142.206 126.508 142.082 125.92 142.074 125.26C142.082 124.584 142.208 123.99 142.452 123.478C142.7 122.962 143.054 122.56 143.514 122.272C143.974 121.984 144.528 121.84 145.176 121.84C145.86 121.84 146.448 122.008 146.94 122.344C147.436 122.68 147.768 123.14 147.936 123.724L146.88 124.042C146.744 123.666 146.522 123.374 146.214 123.166C145.91 122.958 145.56 122.854 145.164 122.854C144.72 122.854 144.354 122.958 144.066 123.166C143.778 123.37 143.564 123.654 143.424 124.018C143.284 124.378 143.212 124.792 143.208 125.26C143.216 125.98 143.382 126.562 143.706 127.006C144.034 127.446 144.52 127.666 145.164 127.666C145.588 127.666 145.94 127.57 146.22 127.378C146.5 127.182 146.712 126.9 146.856 126.532L147.936 126.814C147.712 127.418 147.362 127.88 146.886 128.2C146.41 128.52 145.836 128.68 145.164 128.68ZM151.745 128.68C151.101 128.68 150.545 128.534 150.077 128.242C149.613 127.95 149.255 127.546 149.003 127.03C148.751 126.514 148.625 125.922 148.625 125.254C148.625 124.574 148.753 123.978 149.009 123.466C149.265 122.954 149.627 122.556 150.095 122.272C150.563 121.984 151.113 121.84 151.745 121.84C152.393 121.84 152.951 121.986 153.419 122.278C153.887 122.566 154.245 122.968 154.493 123.484C154.745 123.996 154.871 124.586 154.871 125.254C154.871 125.93 154.745 126.526 154.493 127.042C154.241 127.554 153.881 127.956 153.413 128.248C152.945 128.536 152.389 128.68 151.745 128.68ZM151.745 127.666C152.417 127.666 152.917 127.442 153.245 126.994C153.573 126.546 153.737 125.966 153.737 125.254C153.737 124.522 153.571 123.94 153.239 123.508C152.907 123.072 152.409 122.854 151.745 122.854C151.293 122.854 150.921 122.956 150.629 123.16C150.337 123.364 150.119 123.646 149.975 124.006C149.831 124.366 149.759 124.782 149.759 125.254C149.759 125.982 149.927 126.566 150.263 127.006C150.599 127.446 151.093 127.666 151.745 127.666ZM160.806 128.5V125.254C160.806 124.946 160.778 124.65 160.722 124.366C160.67 124.082 160.576 123.828 160.44 123.604C160.308 123.376 160.128 123.196 159.9 123.064C159.676 122.932 159.392 122.866 159.048 122.866C158.78 122.866 158.536 122.912 158.316 123.004C158.1 123.092 157.914 123.228 157.758 123.412C157.602 123.596 157.48 123.828 157.392 124.108C157.308 124.384 157.266 124.71 157.266 125.086L156.564 124.87C156.564 124.242 156.676 123.704 156.9 123.256C157.128 122.804 157.446 122.458 157.854 122.218C158.266 121.974 158.75 121.852 159.306 121.852C159.726 121.852 160.084 121.918 160.38 122.05C160.676 122.182 160.922 122.358 161.118 122.578C161.314 122.794 161.468 123.038 161.58 123.31C161.692 123.578 161.77 123.852 161.814 124.132C161.862 124.408 161.886 124.67 161.886 124.918V128.5H160.806ZM156.186 128.5V122.02H157.146V123.754H157.266V128.5H156.186ZM165.931 128.68C165.327 128.68 164.809 128.53 164.377 128.23C163.945 127.926 163.611 127.516 163.375 127C163.143 126.484 163.027 125.902 163.027 125.254C163.027 124.606 163.143 124.024 163.375 123.508C163.611 122.992 163.945 122.586 164.377 122.29C164.809 121.99 165.325 121.84 165.925 121.84C166.537 121.84 167.051 121.988 167.467 122.284C167.883 122.58 168.197 122.986 168.409 123.502C168.625 124.018 168.733 124.602 168.733 125.254C168.733 125.898 168.625 126.48 168.409 127C168.197 127.516 167.883 127.926 167.467 128.23C167.051 128.53 166.539 128.68 165.931 128.68ZM166.063 127.702C166.499 127.702 166.857 127.598 167.137 127.39C167.417 127.178 167.623 126.888 167.755 126.52C167.891 126.148 167.959 125.726 167.959 125.254C167.959 124.774 167.891 124.352 167.755 123.988C167.623 123.62 167.419 123.334 167.143 123.13C166.867 122.922 166.517 122.818 166.093 122.818C165.653 122.818 165.289 122.926 165.001 123.142C164.717 123.358 164.505 123.65 164.365 124.018C164.229 124.386 164.161 124.798 164.161 125.254C164.161 125.714 164.231 126.13 164.371 126.502C164.511 126.87 164.721 127.162 165.001 127.378C165.285 127.594 165.639 127.702 166.063 127.702ZM167.959 128.5V123.73H167.839V119.86H168.913V128.5H167.959ZM170.714 120.874V119.77H171.782V120.874H170.714ZM170.714 128.5V122.02H171.782V128.5H170.714ZM177.2 128.5C176.816 128.576 176.436 128.606 176.06 128.59C175.688 128.578 175.356 128.504 175.064 128.368C174.772 128.228 174.55 128.012 174.398 127.72C174.27 127.464 174.2 127.206 174.188 126.946C174.18 126.682 174.176 126.384 174.176 126.052V120.22H175.244V126.004C175.244 126.268 175.246 126.494 175.25 126.682C175.258 126.87 175.3 127.032 175.376 127.168C175.52 127.424 175.748 127.574 176.06 127.618C176.376 127.662 176.756 127.65 177.2 127.582V128.5ZM172.862 122.902V122.02H177.2V122.902H172.862ZM178.636 120.874V119.77H179.704V120.874H178.636ZM178.636 128.5V122.02H179.704V128.5H178.636ZM184.264 128.68C183.62 128.68 183.064 128.534 182.596 128.242C182.132 127.95 181.774 127.546 181.522 127.03C181.27 126.514 181.144 125.922 181.144 125.254C181.144 124.574 181.272 123.978 181.528 123.466C181.784 122.954 182.146 122.556 182.614 122.272C183.082 121.984 183.632 121.84 184.264 121.84C184.912 121.84 185.47 121.986 185.938 122.278C186.406 122.566 186.764 122.968 187.012 123.484C187.264 123.996 187.39 124.586 187.39 125.254C187.39 125.93 187.264 126.526 187.012 127.042C186.76 127.554 186.4 127.956 185.932 128.248C185.464 128.536 184.908 128.68 184.264 128.68ZM184.264 127.666C184.936 127.666 185.436 127.442 185.764 126.994C186.092 126.546 186.256 125.966 186.256 125.254C186.256 124.522 186.09 123.94 185.758 123.508C185.426 123.072 184.928 122.854 184.264 122.854C183.812 122.854 183.44 122.956 183.148 123.16C182.856 123.364 182.638 123.646 182.494 124.006C182.35 124.366 182.278 124.782 182.278 125.254C182.278 125.982 182.446 126.566 182.782 127.006C183.118 127.446 183.612 127.666 184.264 127.666ZM193.325 128.5V125.254C193.325 124.946 193.297 124.65 193.241 124.366C193.189 124.082 193.095 123.828 192.959 123.604C192.827 123.376 192.647 123.196 192.419 123.064C192.195 122.932 191.911 122.866 191.567 122.866C191.299 122.866 191.055 122.912 190.835 123.004C190.619 123.092 190.433 123.228 190.277 123.412C190.121 123.596 189.999 123.828 189.911 124.108C189.827 124.384 189.785 124.71 189.785 125.086L189.083 124.87C189.083 124.242 189.195 123.704 189.419 123.256C189.647 122.804 189.965 122.458 190.373 122.218C190.785 121.974 191.269 121.852 191.825 121.852C192.245 121.852 192.603 121.918 192.899 122.05C193.195 122.182 193.441 122.358 193.637 122.578C193.833 122.794 193.987 123.038 194.099 123.31C194.211 123.578 194.289 123.852 194.333 124.132C194.381 124.408 194.405 124.67 194.405 124.918V128.5H193.325ZM188.705 128.5V122.02H189.665V123.754H189.785V128.5H188.705ZM198.413 128.674C197.641 128.674 197.007 128.506 196.511 128.17C196.019 127.83 195.717 127.356 195.605 126.748L196.697 126.574C196.785 126.926 196.987 127.206 197.303 127.414C197.619 127.618 198.011 127.72 198.479 127.72C198.923 127.72 199.271 127.628 199.523 127.444C199.775 127.26 199.901 127.01 199.901 126.694C199.901 126.51 199.859 126.362 199.775 126.25C199.691 126.134 199.517 126.026 199.253 125.926C198.993 125.826 198.599 125.706 198.071 125.566C197.499 125.414 197.049 125.256 196.721 125.092C196.393 124.928 196.159 124.738 196.019 124.522C195.879 124.306 195.809 124.044 195.809 123.736C195.809 123.356 195.913 123.024 196.121 122.74C196.329 122.452 196.619 122.23 196.991 122.074C197.367 121.918 197.803 121.84 198.299 121.84C198.791 121.84 199.231 121.918 199.619 122.074C200.007 122.23 200.319 122.452 200.555 122.74C200.795 123.024 200.937 123.356 200.981 123.736L199.889 123.934C199.837 123.586 199.669 123.312 199.385 123.112C199.105 122.912 198.743 122.806 198.299 122.794C197.879 122.778 197.537 122.852 197.273 123.016C197.013 123.18 196.883 123.402 196.883 123.682C196.883 123.838 196.931 123.972 197.027 124.084C197.127 124.196 197.309 124.302 197.573 124.402C197.841 124.502 198.229 124.616 198.737 124.744C199.309 124.888 199.759 125.046 200.087 125.218C200.419 125.386 200.655 125.586 200.795 125.818C200.935 126.046 201.005 126.328 201.005 126.664C201.005 127.288 200.775 127.78 200.315 128.14C199.855 128.496 199.221 128.674 198.413 128.674Z" fill="#3C0EB9"/>
</g>
</g>
<defs>
<filter id="filter0_dd_347_14700" x="0" y="0" width="353" height="181" filterUnits="userSpaceOnUse" color-interpolation-filters="sRGB">
<feFlood flood-opacity="0" result="BackgroundImageFix"/>
<feColorMatrix in="SourceAlpha" type="matrix" values="0 0 0 0 0 0 0 0 0 0 0 0 0 0 0 0 0 0 127 0" result="hardAlpha"/>
<feMorphology radius="3" operator="erode" in="SourceAlpha" result="effect1_dropShadow_347_14700"/>
<feOffset dy="2"/>
<feGaussianBlur stdDeviation="2"/>
<feColorMatrix type="matrix" values="0 0 0 0 0.137255 0 0 0 0 0.152941 0 0 0 0 0.184314 0 0 0 0.04 0"/>
<feBlend mode="normal" in2="BackgroundImageFix" result="effect1_dropShadow_347_14700"/>
<feColorMatrix in="SourceAlpha" type="matrix" values="0 0 0 0 0 0 0 0 0 0 0 0 0 0 0 0 0 0 127 0" result="hardAlpha"/>
<feMorphology radius="3" operator="erode" in="SourceAlpha" result="effect2_dropShadow_347_14700"/>
<feOffset dy="4"/>
<feGaussianBlur stdDeviation="4"/>
<feColorMatrix type="matrix" values="0 0 0 0 0.137255 0 0 0 0 0.152941 0 0 0 0 0.184314 0 0 0 0.12 0"/>
<feBlend mode="normal" in2="effect1_dropShadow_347_14700" result="effect2_dropShadow_347_14700"/>
<feBlend mode="normal" in="SourceGraphic" in2="effect2_dropShadow_347_14700" result="shape"/>
</filter>
<clipPath id="clip0_347_14700">
<rect x="5" y="1" width="343" height="171" rx="20" fill="white"/>
</clipPath>
</defs>
</svg>
