<svg width="353" height="181" viewBox="0 0 353 181" fill="none" xmlns="http://www.w3.org/2000/svg">
<g filter="url(#filter0_dd_347_14401)">
<g clip-path="url(#clip0_347_14401)">
<path fill-rule="evenodd" clip-rule="evenodd" d="M73 6.34375H77V1H328C339.046 1 348 9.95431 348 21V152C348 163.046 339.046 172 328 172H77V166.656H73V172H25C13.9543 172 5 163.046 5 152V149C11.6274 149 17 143.627 17 137C17 130.373 11.6274 125 5 125V115C11.6274 115 17 109.627 17 103C17 96.3726 11.6274 91 5 91V81C11.6274 81 17 75.6274 17 69C17 62.3726 11.6274 57 5 57V47C11.6274 47 17 41.6274 17 35C17 28.3726 11.6274 23 5 23V21C5 9.95431 13.9543 1 25 1H73V6.34375ZM73 155.969H77V145.281H73V155.969ZM73 134.594H77V123.906H73V134.594ZM73 113.219H77V102.531H73V113.219ZM73 91.8438H77V81.1562H73V91.8438ZM73 70.4688H77V59.7812H73V70.4688ZM73 49.0938H77V38.4062H73V49.0938ZM73 27.7188H77V17.0312H73V27.7188Z" fill="#279142"/>
<path d="M49 136.789H34.6V132.199C34.6 132.079 34.6033 131.843 34.61 131.489C34.6167 131.129 34.64 130.783 34.68 130.449C34.8267 129.309 35.2333 128.346 35.9 127.559C36.56 126.766 37.4033 126.166 38.43 125.759C39.4567 125.353 40.58 125.149 41.8 125.149C43.02 125.149 44.1433 125.353 45.17 125.759C46.1967 126.166 47.0433 126.766 47.71 127.559C48.37 128.346 48.7733 129.309 48.92 130.449C48.96 130.776 48.9833 131.119 48.99 131.479C48.9967 131.839 49 132.079 49 132.199V136.789ZM46.73 134.339V132.199C46.73 131.999 46.7233 131.746 46.71 131.439C46.6967 131.126 46.6667 130.849 46.62 130.609C46.4933 129.929 46.19 129.376 45.71 128.949C45.23 128.523 44.6467 128.209 43.96 128.009C43.2733 127.803 42.5533 127.699 41.8 127.699C41.02 127.699 40.2867 127.803 39.6 128.009C38.9133 128.216 38.3367 128.536 37.87 128.969C37.4033 129.396 37.1067 129.943 36.98 130.609C36.9267 130.849 36.8967 131.126 36.89 131.439C36.8767 131.746 36.87 131.999 36.87 132.199V134.339H46.73ZM49 122.586H34.6V120.176H49V122.586ZM49.3 111.85C49.3 112.903 49.1167 113.853 48.75 114.7C48.3833 115.54 47.86 116.233 47.18 116.78C46.4933 117.32 45.68 117.663 44.74 117.81L44.36 115.31C45.2133 115.097 45.8733 114.66 46.34 114C46.8067 113.333 47.04 112.567 47.04 111.7C47.04 111.187 46.96 110.703 46.8 110.25C46.64 109.797 46.4067 109.43 46.1 109.15C45.7933 108.863 45.4167 108.72 44.97 108.72C44.77 108.72 44.5867 108.753 44.42 108.82C44.2467 108.887 44.0933 108.987 43.96 109.12C43.8267 109.247 43.7067 109.413 43.6 109.62C43.4867 109.82 43.39 110.053 43.31 110.32L42.21 114.04C42.1167 114.36 41.9933 114.707 41.84 115.08C41.68 115.447 41.4633 115.797 41.19 116.13C40.91 116.457 40.5567 116.727 40.13 116.94C39.6967 117.147 39.1633 117.25 38.53 117.25C37.6033 117.25 36.8267 117.017 36.2 116.55C35.5667 116.077 35.0933 115.443 34.78 114.65C34.4667 113.85 34.3133 112.963 34.32 111.99C34.3267 111.003 34.4967 110.123 34.83 109.35C35.1567 108.577 35.6333 107.93 36.26 107.41C36.8867 106.89 37.6433 106.523 38.53 106.31L38.98 108.9C38.4733 109.007 38.0433 109.213 37.69 109.52C37.33 109.82 37.0567 110.19 36.87 110.63C36.6833 111.063 36.5833 111.527 36.57 112.02C36.5633 112.5 36.6367 112.947 36.79 113.36C36.9367 113.767 37.15 114.097 37.43 114.35C37.71 114.597 38.0367 114.72 38.41 114.72C38.7633 114.72 39.0533 114.613 39.28 114.4C39.5 114.187 39.6767 113.923 39.81 113.61C39.9367 113.29 40.0433 112.967 40.13 112.64L40.85 110.06C40.9433 109.707 41.07 109.31 41.23 108.87C41.39 108.43 41.6133 108.007 41.9 107.6C42.1867 107.193 42.5633 106.86 43.03 106.6C43.4967 106.333 44.09 106.2 44.81 106.2C45.5567 106.2 46.2133 106.357 46.78 106.67C47.34 106.977 47.8067 107.393 48.18 107.92C48.5533 108.447 48.8333 109.05 49.02 109.73C49.2067 110.403 49.3 111.11 49.3 111.85ZM49.3 97.9455C49.3 99.3855 48.9867 100.619 48.36 101.646C47.7267 102.672 46.8467 103.462 45.72 104.016C44.5933 104.562 43.2867 104.836 41.8 104.836C40.3133 104.836 39.0067 104.562 37.88 104.016C36.7533 103.462 35.8767 102.672 35.25 101.646C34.6167 100.619 34.3 99.3855 34.3 97.9455C34.3 96.2855 34.7167 94.9022 35.55 93.7955C36.3767 92.6889 37.4933 91.9122 38.9 91.4655L39.57 93.8955C38.63 94.1755 37.8967 94.6522 37.37 95.3255C36.8367 95.9989 36.57 96.8722 36.57 97.9455C36.57 98.9122 36.7867 99.7189 37.22 100.366C37.6533 101.006 38.2633 101.489 39.05 101.816C39.83 102.136 40.7467 102.299 41.8 102.306C42.8533 102.306 43.7733 102.146 44.56 101.826C45.34 101.499 45.9467 101.012 46.38 100.366C46.8133 99.7189 47.03 98.9122 47.03 97.9455C47.03 96.8722 46.7633 95.9989 46.23 95.3255C45.6967 94.6522 44.9633 94.1755 44.03 93.8955L44.7 91.4655C46.1067 91.9122 47.2267 92.6889 48.06 93.7955C48.8867 94.9022 49.3 96.2855 49.3 97.9455ZM49.3 83.1799C49.3 84.6199 48.9867 85.8533 48.36 86.8799C47.7267 87.9066 46.8467 88.6966 45.72 89.2499C44.5933 89.7966 43.2867 90.0699 41.8 90.0699C40.3133 90.0699 39.0067 89.7966 37.88 89.2499C36.7533 88.6966 35.8767 87.9066 35.25 86.8799C34.6167 85.8533 34.3 84.6199 34.3 83.1799C34.3 81.7399 34.6167 80.5066 35.25 79.4799C35.8767 78.4466 36.7533 77.6566 37.88 77.1099C39.0067 76.5566 40.3133 76.2799 41.8 76.2799C43.2867 76.2799 44.5933 76.5566 45.72 77.1099C46.8467 77.6566 47.7267 78.4466 48.36 79.4799C48.9867 80.5066 49.3 81.7399 49.3 83.1799ZM47.03 83.1799C47.0367 82.2133 46.8233 81.4099 46.39 80.7699C45.9567 80.1233 45.3467 79.6399 44.56 79.3199C43.7733 78.9933 42.8533 78.8299 41.8 78.8299C40.7467 78.8299 39.8333 78.9933 39.06 79.3199C38.28 79.6399 37.6733 80.1233 37.24 80.7699C36.8067 81.4099 36.5833 82.2133 36.57 83.1799C36.5633 84.1466 36.7767 84.9499 37.21 85.5899C37.6433 86.2299 38.2533 86.7133 39.04 87.0399C39.8267 87.3599 40.7467 87.5199 41.8 87.5199C42.8533 87.5199 43.77 87.3599 44.55 87.0399C45.3233 86.7199 45.9267 86.2399 46.36 85.5999C46.7933 84.9533 47.0167 84.1466 47.03 83.1799ZM49.3 68.4895C49.3 69.6361 49.0667 70.6461 48.6 71.5195C48.1333 72.3861 47.4767 73.0661 46.63 73.5595C45.7833 74.0461 44.79 74.2895 43.65 74.2895H34.62L34.6 71.8495H43.59C44.13 71.8495 44.6133 71.7595 45.04 71.5795C45.4667 71.3928 45.83 71.1428 46.13 70.8295C46.4233 70.5161 46.6467 70.1561 46.8 69.7495C46.9533 69.3428 47.03 68.9228 47.03 68.4895C47.03 68.0428 46.9533 67.6195 46.8 67.2195C46.64 66.8128 46.4133 66.4528 46.12 66.1395C45.82 65.8261 45.4567 65.5795 45.03 65.3995C44.6033 65.2195 44.1233 65.1295 43.59 65.1295H34.6V62.6895H43.65C44.79 62.6895 45.7833 62.9361 46.63 63.4295C47.4767 63.9161 48.1333 64.5961 48.6 65.4695C49.0667 66.3361 49.3 67.3428 49.3 68.4895ZM49 59.8949H34.6V57.4549L44.75 50.7749H34.6V48.3349H49V50.7749L38.85 57.4549H49V59.8949ZM49 42.0795H36.86V46.7395H34.6V35.0095H36.86V39.6695H49V42.0795Z" fill="white"/>
<rect width="271" height="171" transform="translate(77 1)" fill="white"/>
<path d="M89.98 55.5V45.42H95.951V46.883H91.443V49.725H95.111V51.195H91.443V55.5H89.98ZM97.2124 55.5V47.94H98.5144V49.774L98.3324 49.536C98.4258 49.2933 98.5471 49.0717 98.6964 48.871C98.8458 48.6657 99.0184 48.4977 99.2144 48.367C99.4058 48.227 99.6181 48.1197 99.8514 48.045C100.089 47.9657 100.332 47.919 100.579 47.905C100.827 47.8863 101.065 47.898 101.293 47.94V49.312C101.046 49.2467 100.771 49.228 100.467 49.256C100.169 49.284 99.8934 49.3797 99.6414 49.543C99.4034 49.697 99.2144 49.8837 99.0744 50.103C98.9391 50.3223 98.8411 50.5673 98.7804 50.838C98.7198 51.104 98.6894 51.3863 98.6894 51.685V55.5H97.2124ZM105.843 55.71C105.091 55.71 104.431 55.5467 103.862 55.22C103.297 54.8887 102.856 54.429 102.539 53.841C102.226 53.2483 102.07 52.5623 102.07 51.783C102.07 50.957 102.224 50.2407 102.532 49.634C102.844 49.0273 103.278 48.5583 103.834 48.227C104.389 47.8957 105.035 47.73 105.773 47.73C106.543 47.73 107.198 47.9097 107.74 48.269C108.281 48.6237 108.685 49.13 108.951 49.788C109.221 50.446 109.329 51.2277 109.273 52.133H107.81V51.601C107.8 50.7237 107.632 50.075 107.306 49.655C106.984 49.235 106.491 49.025 105.829 49.025C105.096 49.025 104.545 49.256 104.177 49.718C103.808 50.18 103.624 50.8473 103.624 51.72C103.624 52.5507 103.808 53.1947 104.177 53.652C104.545 54.1047 105.077 54.331 105.773 54.331C106.23 54.331 106.624 54.2283 106.956 54.023C107.292 53.813 107.553 53.5143 107.74 53.127L109.175 53.582C108.881 54.2587 108.435 54.7837 107.838 55.157C107.24 55.5257 106.575 55.71 105.843 55.71ZM103.148 52.133V50.992H108.545V52.133H103.148ZM114.196 55.71C113.445 55.71 112.785 55.5467 112.215 55.22C111.651 54.8887 111.21 54.429 110.892 53.841C110.58 53.2483 110.423 52.5623 110.423 51.783C110.423 50.957 110.577 50.2407 110.885 49.634C111.198 49.0273 111.632 48.5583 112.187 48.227C112.743 47.8957 113.389 47.73 114.126 47.73C114.896 47.73 115.552 47.9097 116.093 48.269C116.635 48.6237 117.038 49.13 117.304 49.788C117.575 50.446 117.682 51.2277 117.626 52.133H116.163V51.601C116.154 50.7237 115.986 50.075 115.659 49.655C115.337 49.235 114.845 49.025 114.182 49.025C113.45 49.025 112.899 49.256 112.53 49.718C112.162 50.18 111.977 50.8473 111.977 51.72C111.977 52.5507 112.162 53.1947 112.53 53.652C112.899 54.1047 113.431 54.331 114.126 54.331C114.584 54.331 114.978 54.2283 115.309 54.023C115.645 53.813 115.907 53.5143 116.093 53.127L117.528 53.582C117.234 54.2587 116.789 54.7837 116.191 55.157C115.594 55.5257 114.929 55.71 114.196 55.71ZM111.501 52.133V50.992H116.898V52.133H111.501ZM125.654 55.71C124.93 55.71 124.277 55.5863 123.694 55.339C123.115 55.087 122.637 54.73 122.259 54.268C121.885 53.8013 121.643 53.2483 121.531 52.609L123.057 52.378C123.211 52.994 123.533 53.4747 124.023 53.82C124.513 54.1607 125.084 54.331 125.738 54.331C126.144 54.331 126.517 54.268 126.858 54.142C127.198 54.0113 127.471 53.827 127.677 53.589C127.887 53.3463 127.992 53.057 127.992 52.721C127.992 52.539 127.959 52.378 127.894 52.238C127.833 52.098 127.747 51.9767 127.635 51.874C127.527 51.7667 127.394 51.6757 127.236 51.601C127.082 51.5217 126.911 51.454 126.725 51.398L124.142 50.635C123.89 50.5603 123.633 50.4647 123.372 50.348C123.11 50.2267 122.87 50.0703 122.651 49.879C122.436 49.683 122.261 49.4427 122.126 49.158C121.99 48.8687 121.923 48.5187 121.923 48.108C121.923 47.4873 122.081 46.9623 122.399 46.533C122.721 46.099 123.155 45.7723 123.701 45.553C124.247 45.329 124.858 45.217 125.535 45.217C126.216 45.2263 126.825 45.3477 127.362 45.581C127.903 45.8143 128.351 46.1503 128.706 46.589C129.065 47.023 129.312 47.5503 129.448 48.171L127.88 48.437C127.81 48.059 127.66 47.7347 127.432 47.464C127.203 47.1887 126.923 46.9787 126.592 46.834C126.26 46.6847 125.901 46.6077 125.514 46.603C125.14 46.5937 124.797 46.6497 124.485 46.771C124.177 46.8923 123.929 47.0627 123.743 47.282C123.561 47.5013 123.47 47.7533 123.47 48.038C123.47 48.318 123.551 48.5443 123.715 48.717C123.878 48.8897 124.079 49.0273 124.317 49.13C124.559 49.228 124.8 49.3097 125.038 49.375L126.9 49.9C127.133 49.9653 127.397 50.054 127.691 50.166C127.989 50.2733 128.276 50.425 128.552 50.621C128.832 50.817 129.063 51.0783 129.245 51.405C129.427 51.727 129.518 52.133 129.518 52.623C129.518 53.1317 129.415 53.5797 129.21 53.967C129.004 54.3497 128.722 54.6717 128.363 54.933C128.008 55.1897 127.597 55.3833 127.131 55.514C126.664 55.6447 126.172 55.71 125.654 55.71ZM136.315 55.5V51.783C136.315 51.489 136.29 51.188 136.238 50.88C136.192 50.5673 136.098 50.278 135.958 50.012C135.823 49.746 135.629 49.5313 135.377 49.368C135.13 49.2047 134.806 49.123 134.404 49.123C134.143 49.123 133.896 49.1673 133.662 49.256C133.429 49.34 133.224 49.4777 133.046 49.669C132.874 49.8603 132.736 50.1123 132.633 50.425C132.535 50.7377 132.486 51.118 132.486 51.566L131.576 51.223C131.576 50.537 131.705 49.9327 131.961 49.41C132.218 48.8827 132.587 48.472 133.067 48.178C133.548 47.884 134.129 47.737 134.81 47.737C135.333 47.737 135.772 47.821 136.126 47.989C136.481 48.157 136.768 48.3787 136.987 48.654C137.211 48.9247 137.382 49.221 137.498 49.543C137.615 49.865 137.694 50.18 137.736 50.488C137.778 50.796 137.799 51.0667 137.799 51.3V55.5H136.315ZM131.002 55.5V45.42H132.311V50.859H132.486V55.5H131.002ZM139.763 46.701V45.28H141.226V46.701H139.763ZM139.763 55.5V47.94H141.226V55.5H139.763ZM146.877 55.71C146.153 55.71 145.547 55.535 145.057 55.185C144.567 54.8303 144.196 54.352 143.944 53.75C143.692 53.148 143.566 52.469 143.566 51.713C143.566 50.957 143.689 50.278 143.937 49.676C144.189 49.074 144.557 48.6003 145.043 48.255C145.533 47.905 146.135 47.73 146.849 47.73C147.558 47.73 148.169 47.905 148.683 48.255C149.201 48.6003 149.6 49.074 149.88 49.676C150.16 50.2733 150.3 50.9523 150.3 51.713C150.3 52.469 150.16 53.1503 149.88 53.757C149.604 54.359 149.21 54.835 148.697 55.185C148.188 55.535 147.581 55.71 146.877 55.71ZM143.321 58.86V47.94H144.623V53.379H144.791V58.86H143.321ZM146.674 54.387C147.14 54.387 147.525 54.268 147.829 54.03C148.137 53.792 148.365 53.4723 148.515 53.071C148.669 52.665 148.746 52.2123 148.746 51.713C148.746 51.2183 148.669 50.7703 148.515 50.369C148.365 49.9677 148.134 49.648 147.822 49.41C147.509 49.172 147.11 49.053 146.625 49.053C146.167 49.053 145.789 49.165 145.491 49.389C145.197 49.613 144.977 49.9257 144.833 50.327C144.693 50.7283 144.623 51.1903 144.623 51.713C144.623 52.2357 144.693 52.6977 144.833 53.099C144.973 53.5003 145.194 53.8153 145.498 54.044C145.801 54.2727 146.193 54.387 146.674 54.387ZM155.394 55.71C154.671 55.71 154.064 55.535 153.574 55.185C153.084 54.8303 152.713 54.352 152.461 53.75C152.209 53.148 152.083 52.469 152.083 51.713C152.083 50.957 152.207 50.278 152.454 49.676C152.706 49.074 153.075 48.6003 153.56 48.255C154.05 47.905 154.652 47.73 155.366 47.73C156.076 47.73 156.687 47.905 157.2 48.255C157.718 48.6003 158.117 49.074 158.397 49.676C158.677 50.2733 158.817 50.9523 158.817 51.713C158.817 52.469 158.677 53.1503 158.397 53.757C158.122 54.359 157.728 54.835 157.214 55.185C156.706 55.535 156.099 55.71 155.394 55.71ZM151.838 58.86V47.94H153.14V53.379H153.308V58.86H151.838ZM155.191 54.387C155.658 54.387 156.043 54.268 156.346 54.03C156.654 53.792 156.883 53.4723 157.032 53.071C157.186 52.665 157.263 52.2123 157.263 51.713C157.263 51.2183 157.186 50.7703 157.032 50.369C156.883 49.9677 156.652 49.648 156.339 49.41C156.027 49.172 155.628 49.053 155.142 49.053C154.685 49.053 154.307 49.165 154.008 49.389C153.714 49.613 153.495 49.9257 153.35 50.327C153.21 50.7283 153.14 51.1903 153.14 51.713C153.14 52.2357 153.21 52.6977 153.35 53.099C153.49 53.5003 153.712 53.8153 154.015 54.044C154.319 54.2727 154.711 54.387 155.191 54.387ZM160.503 46.701V45.28H161.966V46.701H160.503ZM160.503 55.5V47.94H161.966V55.5H160.503ZM169.374 55.5V51.783C169.374 51.489 169.348 51.188 169.297 50.88C169.25 50.5673 169.157 50.278 169.017 50.012C168.882 49.746 168.688 49.5313 168.436 49.368C168.189 49.2047 167.864 49.123 167.463 49.123C167.202 49.123 166.954 49.1673 166.721 49.256C166.488 49.34 166.282 49.4777 166.105 49.669C165.932 49.8603 165.795 50.1123 165.692 50.425C165.594 50.7377 165.545 51.118 165.545 51.566L164.635 51.223C164.635 50.537 164.763 49.9327 165.02 49.41C165.277 48.8827 165.645 48.472 166.126 48.178C166.607 47.884 167.188 47.737 167.869 47.737C168.392 47.737 168.83 47.821 169.185 47.989C169.54 48.157 169.827 48.3787 170.046 48.654C170.27 48.9247 170.44 49.221 170.557 49.543C170.674 49.865 170.753 50.18 170.795 50.488C170.837 50.796 170.858 51.0667 170.858 51.3V55.5H169.374ZM164.061 55.5V47.94H165.37V50.124H165.545V55.5H164.061ZM175.796 59.07C175.39 59.07 174.996 59.007 174.613 58.881C174.235 58.755 173.89 58.5683 173.577 58.321C173.265 58.0783 173.006 57.7773 172.8 57.418L174.151 56.732C174.315 57.054 174.548 57.2897 174.851 57.439C175.155 57.5883 175.474 57.663 175.81 57.663C176.226 57.663 176.58 57.5883 176.874 57.439C177.168 57.2943 177.39 57.075 177.539 56.781C177.693 56.487 177.768 56.123 177.763 55.689V53.575H177.938V47.94H179.233V55.703C179.233 55.9037 179.226 56.095 179.212 56.277C179.198 56.459 179.173 56.641 179.135 56.823C179.028 57.3317 178.823 57.7517 178.519 58.083C178.221 58.4143 177.838 58.6617 177.371 58.825C176.909 58.9883 176.384 59.07 175.796 59.07ZM175.684 55.71C174.98 55.71 174.371 55.535 173.857 55.185C173.349 54.835 172.954 54.359 172.674 53.757C172.399 53.1503 172.261 52.469 172.261 51.713C172.261 50.9523 172.401 50.2733 172.681 49.676C172.961 49.074 173.358 48.6003 173.871 48.255C174.389 47.905 175.003 47.73 175.712 47.73C176.426 47.73 177.026 47.905 177.511 48.255C178.001 48.6003 178.37 49.074 178.617 49.676C178.869 50.278 178.995 50.957 178.995 51.713C178.995 52.469 178.869 53.148 178.617 53.75C178.365 54.352 177.994 54.8303 177.504 55.185C177.014 55.535 176.408 55.71 175.684 55.71ZM175.887 54.387C176.368 54.387 176.76 54.2727 177.063 54.044C177.367 53.8153 177.588 53.5003 177.728 53.099C177.868 52.6977 177.938 52.2357 177.938 51.713C177.938 51.1903 177.866 50.7283 177.721 50.327C177.581 49.9257 177.362 49.613 177.063 49.389C176.769 49.165 176.394 49.053 175.936 49.053C175.451 49.053 175.052 49.172 174.739 49.41C174.427 49.648 174.193 49.9677 174.039 50.369C173.89 50.7703 173.815 51.2183 173.815 51.713C173.815 52.2123 173.89 52.665 174.039 53.071C174.193 53.4723 174.422 53.792 174.725 54.03C175.033 54.268 175.421 54.387 175.887 54.387Z" fill="#5B5760"/>
<path d="M90.26 82.5V69.54H98.063V71.709H92.429V74.94H96.983V77.1H92.429V82.5H90.26ZM99.6819 82.5V69.54H105.037C105.163 69.54 105.325 69.546 105.523 69.558C105.721 69.564 105.904 69.582 106.072 69.612C106.822 69.726 107.44 69.975 107.926 70.359C108.418 70.743 108.781 71.229 109.015 71.817C109.255 72.399 109.375 73.047 109.375 73.761C109.375 74.817 109.108 75.726 108.574 76.488C108.04 77.244 107.221 77.712 106.117 77.892L105.19 77.973H101.851V82.5H99.6819ZM107.125 82.5L104.569 77.226L106.774 76.74L109.582 82.5H107.125ZM101.851 75.948H104.947C105.067 75.948 105.202 75.942 105.352 75.93C105.502 75.918 105.64 75.894 105.766 75.858C106.126 75.768 106.408 75.609 106.612 75.381C106.822 75.153 106.969 74.895 107.053 74.607C107.143 74.319 107.188 74.037 107.188 73.761C107.188 73.485 107.143 73.203 107.053 72.915C106.969 72.621 106.822 72.36 106.612 72.132C106.408 71.904 106.126 71.745 105.766 71.655C105.64 71.619 105.502 71.598 105.352 71.592C105.202 71.58 105.067 71.574 104.947 71.574H101.851V75.948ZM111.565 82.5V69.54H119.935V71.574H113.734V74.769H118.855V76.803H113.734V80.466H119.935V82.5H111.565ZM122.094 82.5V69.54H130.464V71.574H124.263V74.769H129.384V76.803H124.263V80.466H130.464V82.5H122.094ZM137.297 82.77C136.349 82.77 135.494 82.605 134.732 82.275C133.976 81.945 133.352 81.474 132.86 80.862C132.374 80.244 132.065 79.512 131.933 78.666L134.183 78.324C134.375 79.092 134.768 79.686 135.362 80.106C135.962 80.526 136.652 80.736 137.432 80.736C137.894 80.736 138.329 80.664 138.737 80.52C139.145 80.376 139.475 80.166 139.727 79.89C139.985 79.614 140.114 79.275 140.114 78.873C140.114 78.693 140.084 78.528 140.024 78.378C139.964 78.222 139.874 78.084 139.754 77.964C139.64 77.844 139.49 77.736 139.304 77.64C139.124 77.538 138.914 77.451 138.674 77.379L135.326 76.389C135.038 76.305 134.726 76.194 134.39 76.056C134.06 75.912 133.745 75.717 133.445 75.471C133.151 75.219 132.908 74.901 132.716 74.517C132.53 74.127 132.437 73.647 132.437 73.077C132.437 72.243 132.647 71.544 133.067 70.98C133.493 70.41 134.063 69.984 134.777 69.702C135.497 69.42 136.295 69.282 137.171 69.288C138.059 69.294 138.851 69.447 139.547 69.747C140.243 70.041 140.825 70.47 141.293 71.034C141.761 71.598 142.091 72.279 142.283 73.077L139.952 73.482C139.856 73.026 139.67 72.639 139.394 72.321C139.124 71.997 138.791 71.751 138.395 71.583C138.005 71.415 137.588 71.325 137.144 71.313C136.712 71.307 136.31 71.373 135.938 71.511C135.572 71.643 135.275 71.835 135.047 72.087C134.825 72.339 134.714 72.633 134.714 72.969C134.714 73.287 134.81 73.548 135.002 73.752C135.194 73.95 135.431 74.109 135.713 74.229C136.001 74.343 136.292 74.439 136.586 74.517L138.908 75.165C139.226 75.249 139.583 75.363 139.979 75.507C140.375 75.651 140.756 75.852 141.122 76.11C141.488 76.368 141.788 76.707 142.022 77.127C142.262 77.547 142.382 78.081 142.382 78.729C142.382 79.401 142.241 79.992 141.959 80.502C141.683 81.006 141.308 81.426 140.834 81.762C140.36 82.098 139.817 82.35 139.205 82.518C138.599 82.686 137.963 82.77 137.297 82.77ZM144.33 82.5V69.54H146.499V74.994H152.637V69.54H154.797V82.5H152.637V77.028H146.499V82.5H144.33ZM157.501 82.5V69.54H159.67V82.5H157.501ZM162.365 82.5V69.54H167.72C167.846 69.54 168.008 69.546 168.206 69.558C168.404 69.564 168.587 69.582 168.755 69.612C169.505 69.726 170.123 69.975 170.609 70.359C171.101 70.743 171.464 71.229 171.698 71.817C171.938 72.399 172.058 73.047 172.058 73.761C172.058 74.469 171.938 75.117 171.698 75.705C171.458 76.287 171.092 76.77 170.6 77.154C170.114 77.538 169.499 77.787 168.755 77.901C168.587 77.925 168.401 77.943 168.197 77.955C167.999 77.967 167.84 77.973 167.72 77.973H164.534V82.5H162.365ZM164.534 75.948H167.63C167.75 75.948 167.885 75.942 168.035 75.93C168.185 75.918 168.323 75.894 168.449 75.858C168.809 75.768 169.091 75.609 169.295 75.381C169.505 75.153 169.652 74.895 169.736 74.607C169.826 74.319 169.871 74.037 169.871 73.761C169.871 73.485 169.826 73.203 169.736 72.915C169.652 72.621 169.505 72.36 169.295 72.132C169.091 71.904 168.809 71.745 168.449 71.655C168.323 71.619 168.185 71.598 168.035 71.592C167.885 71.58 167.75 71.574 167.63 71.574H164.534V75.948ZM176.112 82.5V71.907L173.682 73.392V70.998L176.112 69.54H178.326V82.5H176.112ZM181.394 82.482V80.592L186.938 75.651C187.37 75.267 187.67 74.904 187.838 74.562C188.006 74.22 188.09 73.89 188.09 73.572C188.09 73.14 187.997 72.756 187.811 72.42C187.625 72.078 187.367 71.808 187.037 71.61C186.713 71.412 186.338 71.313 185.912 71.313C185.462 71.313 185.063 71.418 184.715 71.628C184.373 71.832 184.106 72.105 183.914 72.447C183.722 72.789 183.632 73.158 183.644 73.554H181.412C181.412 72.69 181.604 71.937 181.988 71.295C182.378 70.653 182.912 70.155 183.59 69.801C184.274 69.447 185.063 69.27 185.957 69.27C186.785 69.27 187.529 69.456 188.189 69.828C188.849 70.194 189.368 70.704 189.746 71.358C190.124 72.006 190.313 72.753 190.313 73.599C190.313 74.217 190.229 74.736 190.061 75.156C189.893 75.576 189.641 75.963 189.305 76.317C188.975 76.671 188.564 77.064 188.072 77.496L184.139 80.979L183.941 80.439H190.313V82.482H181.394ZM196.185 82.743C195.537 82.743 194.925 82.617 194.349 82.365C193.773 82.113 193.272 81.756 192.846 81.294C192.426 80.832 192.123 80.286 191.937 79.656L194.034 79.089C194.184 79.605 194.457 80.004 194.853 80.286C195.255 80.562 195.696 80.697 196.176 80.691C196.602 80.691 196.983 80.592 197.319 80.394C197.655 80.196 197.919 79.929 198.111 79.593C198.303 79.251 198.399 78.87 198.399 78.45C198.399 77.808 198.192 77.271 197.778 76.839C197.364 76.407 196.83 76.191 196.176 76.191C195.978 76.191 195.783 76.218 195.591 76.272C195.405 76.326 195.225 76.401 195.051 76.497L194.061 74.787L198.417 71.061L198.606 71.583H192.441V69.54H200.388V71.592L196.887 74.958L196.869 74.319C197.655 74.373 198.324 74.592 198.876 74.976C199.434 75.36 199.86 75.855 200.154 76.461C200.454 77.067 200.604 77.73 200.604 78.45C200.604 79.266 200.403 79.998 200.001 80.646C199.605 81.294 199.071 81.807 198.399 82.185C197.733 82.557 196.995 82.743 196.185 82.743Z" fill="#232027"/>
<rect x="304.5" y="49" width="31" height="31" rx="15.5" fill="white"/>
<rect x="304.5" y="49" width="31" height="31" rx="15.5" stroke="#ECE7F8"/>
<path d="M324.058 62.529C324.058 65.8587 321.359 68.558 318.029 68.558C314.699 68.558 312 65.8587 312 62.529C312 59.1993 314.699 56.5 318.029 56.5C321.359 56.5 324.058 59.1993 324.058 62.529Z" fill="#740000"/>
<path d="M329.333 67.8043C329.333 71.1341 326.634 73.8333 323.304 73.8333C319.975 73.8333 317.275 71.1341 317.275 67.8043C317.275 64.4746 319.975 61.7754 323.304 61.7754C326.634 61.7754 329.333 64.4746 329.333 67.8043Z" fill="#E5672C"/>
<path d="M89.84 108.5V99.86H90.92L95.426 106.61V99.86H96.506V108.5H95.426L90.92 101.744V108.5H89.84ZM100.944 108.68C100.3 108.68 99.7438 108.534 99.2758 108.242C98.8118 107.95 98.4538 107.546 98.2018 107.03C97.9498 106.514 97.8238 105.922 97.8238 105.254C97.8238 104.574 97.9518 103.978 98.2078 103.466C98.4638 102.954 98.8258 102.556 99.2938 102.272C99.7618 101.984 100.312 101.84 100.944 101.84C101.592 101.84 102.15 101.986 102.618 102.278C103.086 102.566 103.444 102.968 103.692 103.484C103.944 103.996 104.07 104.586 104.07 105.254C104.07 105.93 103.944 106.526 103.692 107.042C103.44 107.554 103.08 107.956 102.612 108.248C102.144 108.536 101.588 108.68 100.944 108.68ZM100.944 107.666C101.616 107.666 102.116 107.442 102.444 106.994C102.772 106.546 102.936 105.966 102.936 105.254C102.936 104.522 102.77 103.94 102.438 103.508C102.106 103.072 101.608 102.854 100.944 102.854C100.492 102.854 100.12 102.956 99.8278 103.16C99.5358 103.364 99.3178 103.646 99.1738 104.006C99.0298 104.366 98.9578 104.782 98.9578 105.254C98.9578 105.982 99.1258 106.566 99.4618 107.006C99.7978 107.446 100.292 107.666 100.944 107.666ZM107.793 108.5V99.86H108.765L112.029 106.742L115.275 99.86H116.259V108.494H115.245V102.206L112.311 108.5H111.741L108.807 102.206V108.5H107.793ZM118.062 100.874V99.77H119.13V100.874H118.062ZM118.062 108.5V102.02H119.13V108.5H118.062ZM125.544 108.5V105.254C125.544 104.946 125.516 104.65 125.46 104.366C125.408 104.082 125.314 103.828 125.178 103.604C125.046 103.376 124.866 103.196 124.638 103.064C124.414 102.932 124.13 102.866 123.786 102.866C123.518 102.866 123.274 102.912 123.054 103.004C122.838 103.092 122.652 103.228 122.496 103.412C122.34 103.596 122.218 103.828 122.13 104.108C122.046 104.384 122.004 104.71 122.004 105.086L121.302 104.87C121.302 104.242 121.414 103.704 121.638 103.256C121.866 102.804 122.184 102.458 122.592 102.218C123.004 101.974 123.488 101.852 124.044 101.852C124.464 101.852 124.822 101.918 125.118 102.05C125.414 102.182 125.66 102.358 125.856 102.578C126.052 102.794 126.206 103.038 126.318 103.31C126.43 103.578 126.508 103.852 126.552 104.132C126.6 104.408 126.624 104.67 126.624 104.918V108.5H125.544ZM120.924 108.5V102.02H121.884V103.754H122.004V108.5H120.924ZM128.376 108.5V107.324H129.552V108.5H128.376ZM136.886 108.68C136.274 108.68 135.722 108.576 135.23 108.368C134.742 108.16 134.338 107.864 134.018 107.48C133.702 107.092 133.496 106.634 133.4 106.106L134.504 105.932C134.644 106.476 134.934 106.902 135.374 107.21C135.818 107.514 136.34 107.666 136.94 107.666C137.328 107.666 137.678 107.606 137.99 107.486C138.306 107.362 138.556 107.186 138.74 106.958C138.924 106.73 139.016 106.46 139.016 106.148C139.016 105.956 138.982 105.792 138.914 105.656C138.85 105.516 138.76 105.398 138.644 105.302C138.532 105.202 138.404 105.118 138.26 105.05C138.116 104.982 137.966 104.926 137.81 104.882L135.608 104.228C135.368 104.156 135.136 104.066 134.912 103.958C134.688 103.846 134.488 103.708 134.312 103.544C134.136 103.376 133.996 103.176 133.892 102.944C133.788 102.708 133.736 102.43 133.736 102.11C133.736 101.598 133.868 101.162 134.132 100.802C134.4 100.438 134.762 100.16 135.218 99.968C135.674 99.776 136.188 99.682 136.76 99.686C137.34 99.69 137.858 99.794 138.314 99.998C138.774 100.198 139.154 100.486 139.454 100.862C139.758 101.238 139.962 101.688 140.066 102.212L138.932 102.41C138.872 102.058 138.738 101.756 138.53 101.504C138.326 101.248 138.07 101.052 137.762 100.916C137.454 100.776 137.116 100.704 136.748 100.7C136.396 100.696 136.078 100.752 135.794 100.868C135.51 100.984 135.284 101.146 135.116 101.354C134.948 101.558 134.864 101.794 134.864 102.062C134.864 102.326 134.94 102.54 135.092 102.704C135.244 102.864 135.43 102.992 135.65 103.088C135.874 103.18 136.092 103.256 136.304 103.316L137.948 103.79C138.136 103.842 138.352 103.914 138.596 104.006C138.844 104.098 139.084 104.228 139.316 104.396C139.548 104.56 139.74 104.78 139.892 105.056C140.044 105.328 140.12 105.672 140.12 106.088C140.12 106.504 140.036 106.874 139.868 107.198C139.704 107.522 139.474 107.794 139.178 108.014C138.882 108.23 138.538 108.394 138.146 108.506C137.754 108.622 137.334 108.68 136.886 108.68ZM144.355 108.68C143.747 108.68 143.235 108.53 142.819 108.23C142.403 107.926 142.087 107.516 141.871 107C141.659 106.48 141.553 105.898 141.553 105.254C141.553 104.602 141.659 104.018 141.871 103.502C142.087 102.986 142.403 102.58 142.819 102.284C143.239 101.988 143.753 101.84 144.361 101.84C144.961 101.84 145.477 101.99 145.909 102.29C146.345 102.586 146.679 102.992 146.911 103.508C147.143 104.024 147.259 104.606 147.259 105.254C147.259 105.902 147.143 106.484 146.911 107C146.679 107.516 146.345 107.926 145.909 108.23C145.477 108.53 144.959 108.68 144.355 108.68ZM141.373 111.38V102.02H142.327V106.79H142.447V111.38H141.373ZM144.223 107.702C144.651 107.702 145.005 107.594 145.285 107.378C145.565 107.162 145.775 106.87 145.915 106.502C146.055 106.13 146.125 105.714 146.125 105.254C146.125 104.798 146.055 104.386 145.915 104.018C145.779 103.65 145.567 103.358 145.279 103.142C144.995 102.926 144.633 102.818 144.193 102.818C143.773 102.818 143.425 102.922 143.149 103.13C142.873 103.334 142.667 103.62 142.531 103.988C142.395 104.352 142.327 104.774 142.327 105.254C142.327 105.726 142.393 106.148 142.525 106.52C142.661 106.888 142.869 107.178 143.149 107.39C143.429 107.598 143.787 107.702 144.223 107.702ZM151.382 108.68C150.746 108.68 150.19 108.54 149.714 108.26C149.242 107.976 148.874 107.582 148.61 107.078C148.346 106.57 148.214 105.978 148.214 105.302C148.214 104.594 148.344 103.982 148.604 103.466C148.864 102.946 149.226 102.546 149.69 102.266C150.158 101.982 150.706 101.84 151.334 101.84C151.986 101.84 152.54 101.99 152.996 102.29C153.456 102.59 153.8 103.018 154.028 103.574C154.26 104.13 154.36 104.792 154.328 105.56H153.248V105.176C153.236 104.38 153.074 103.786 152.762 103.394C152.45 102.998 151.986 102.8 151.37 102.8C150.71 102.8 150.208 103.012 149.864 103.436C149.52 103.86 149.348 104.468 149.348 105.26C149.348 106.024 149.52 106.616 149.864 107.036C150.208 107.456 150.698 107.666 151.334 107.666C151.762 107.666 152.134 107.568 152.45 107.372C152.766 107.176 153.014 106.894 153.194 106.526L154.22 106.88C153.968 107.452 153.588 107.896 153.08 108.212C152.576 108.524 152.01 108.68 151.382 108.68ZM148.988 105.56V104.702H153.776V105.56H148.988ZM160.102 108.5V105.254C160.102 104.946 160.074 104.65 160.018 104.366C159.966 104.082 159.872 103.828 159.736 103.604C159.604 103.376 159.424 103.196 159.196 103.064C158.972 102.932 158.688 102.866 158.344 102.866C158.076 102.866 157.832 102.912 157.612 103.004C157.396 103.092 157.21 103.228 157.054 103.412C156.898 103.596 156.776 103.828 156.688 104.108C156.604 104.384 156.562 104.71 156.562 105.086L155.86 104.87C155.86 104.242 155.972 103.704 156.196 103.256C156.424 102.804 156.742 102.458 157.15 102.218C157.562 101.974 158.046 101.852 158.602 101.852C159.022 101.852 159.38 101.918 159.676 102.05C159.972 102.182 160.218 102.358 160.414 102.578C160.61 102.794 160.764 103.038 160.876 103.31C160.988 103.578 161.066 103.852 161.11 104.132C161.158 104.408 161.182 104.67 161.182 104.918V108.5H160.102ZM155.482 108.5V102.02H156.442V103.754H156.562V108.5H155.482ZM165.228 108.68C164.624 108.68 164.106 108.53 163.674 108.23C163.242 107.926 162.908 107.516 162.672 107C162.44 106.484 162.324 105.902 162.324 105.254C162.324 104.606 162.44 104.024 162.672 103.508C162.908 102.992 163.242 102.586 163.674 102.29C164.106 101.99 164.622 101.84 165.222 101.84C165.834 101.84 166.348 101.988 166.764 102.284C167.18 102.58 167.494 102.986 167.706 103.502C167.922 104.018 168.03 104.602 168.03 105.254C168.03 105.898 167.922 106.48 167.706 107C167.494 107.516 167.18 107.926 166.764 108.23C166.348 108.53 165.836 108.68 165.228 108.68ZM165.36 107.702C165.796 107.702 166.154 107.598 166.434 107.39C166.714 107.178 166.92 106.888 167.052 106.52C167.188 106.148 167.256 105.726 167.256 105.254C167.256 104.774 167.188 104.352 167.052 103.988C166.92 103.62 166.716 103.334 166.44 103.13C166.164 102.922 165.814 102.818 165.39 102.818C164.95 102.818 164.586 102.926 164.298 103.142C164.014 103.358 163.802 103.65 163.662 104.018C163.526 104.386 163.458 104.798 163.458 105.254C163.458 105.714 163.528 106.13 163.668 106.502C163.808 106.87 164.018 107.162 164.298 107.378C164.582 107.594 164.936 107.702 165.36 107.702ZM167.256 108.5V103.73H167.136V99.86H168.21V108.5H167.256Z" fill="#393540"/>
<path d="M90.656 123.928L89.87 123.358L90.8 122.188L89.36 121.768L89.66 120.844L91.064 121.366L91.01 119.86H91.982L91.928 121.366L93.332 120.844L93.632 121.768L92.192 122.188L93.116 123.358L92.33 123.928L91.496 122.692L90.656 123.928ZM97.4215 128.5V120.874H94.4755V119.86H101.435V120.874H98.4895V128.5H97.4215ZM104.238 128.68C103.602 128.68 103.046 128.54 102.57 128.26C102.098 127.976 101.73 127.582 101.466 127.078C101.202 126.57 101.07 125.978 101.07 125.302C101.07 124.594 101.2 123.982 101.46 123.466C101.72 122.946 102.082 122.546 102.546 122.266C103.014 121.982 103.562 121.84 104.19 121.84C104.842 121.84 105.396 121.99 105.852 122.29C106.312 122.59 106.656 123.018 106.884 123.574C107.116 124.13 107.216 124.792 107.184 125.56H106.104V125.176C106.092 124.38 105.93 123.786 105.618 123.394C105.306 122.998 104.842 122.8 104.226 122.8C103.566 122.8 103.064 123.012 102.72 123.436C102.376 123.86 102.204 124.468 102.204 125.26C102.204 126.024 102.376 126.616 102.72 127.036C103.064 127.456 103.554 127.666 104.19 127.666C104.618 127.666 104.99 127.568 105.306 127.372C105.622 127.176 105.87 126.894 106.05 126.526L107.076 126.88C106.824 127.452 106.444 127.896 105.936 128.212C105.432 128.524 104.866 128.68 104.238 128.68ZM101.844 125.56V124.702H106.632V125.56H101.844ZM108.52 128.5V122.02H109.474V123.586L109.318 123.382C109.394 123.182 109.492 122.998 109.612 122.83C109.736 122.662 109.874 122.524 110.026 122.416C110.194 122.28 110.384 122.176 110.596 122.104C110.808 122.032 111.024 121.99 111.244 121.978C111.464 121.962 111.67 121.976 111.862 122.02V123.022C111.638 122.962 111.392 122.946 111.124 122.974C110.856 123.002 110.608 123.1 110.38 123.268C110.172 123.416 110.01 123.596 109.894 123.808C109.782 124.02 109.704 124.25 109.66 124.498C109.616 124.742 109.594 124.992 109.594 125.248V128.5H108.52ZM120.742 128.5L120.748 124.354C120.748 123.87 120.618 123.492 120.358 123.22C120.102 122.944 119.768 122.806 119.356 122.806C119.116 122.806 118.888 122.862 118.672 122.974C118.456 123.082 118.28 123.254 118.144 123.49C118.008 123.722 117.94 124.02 117.94 124.384L117.376 124.156C117.368 123.696 117.462 123.294 117.658 122.95C117.858 122.602 118.13 122.332 118.474 122.14C118.818 121.948 119.206 121.852 119.638 121.852C120.314 121.852 120.846 122.058 121.234 122.47C121.622 122.878 121.816 123.428 121.816 124.12L121.81 128.5H120.742ZM112.99 128.5V122.02H113.944V123.754H114.064V128.5H112.99ZM116.872 128.5L116.878 124.396C116.878 123.9 116.75 123.512 116.494 123.232C116.238 122.948 115.898 122.806 115.474 122.806C115.054 122.806 114.714 122.95 114.454 123.238C114.194 123.526 114.064 123.908 114.064 124.384L113.5 124.048C113.5 123.628 113.6 123.252 113.8 122.92C114 122.588 114.272 122.328 114.616 122.14C114.96 121.948 115.35 121.852 115.786 121.852C116.222 121.852 116.602 121.944 116.926 122.128C117.25 122.312 117.5 122.576 117.676 122.92C117.852 123.26 117.94 123.666 117.94 124.138L117.934 128.5H116.872ZM125.827 128.674C125.055 128.674 124.421 128.506 123.925 128.17C123.433 127.83 123.131 127.356 123.019 126.748L124.111 126.574C124.199 126.926 124.401 127.206 124.717 127.414C125.033 127.618 125.425 127.72 125.893 127.72C126.337 127.72 126.685 127.628 126.937 127.444C127.189 127.26 127.315 127.01 127.315 126.694C127.315 126.51 127.273 126.362 127.189 126.25C127.105 126.134 126.931 126.026 126.667 125.926C126.407 125.826 126.013 125.706 125.485 125.566C124.913 125.414 124.463 125.256 124.135 125.092C123.807 124.928 123.573 124.738 123.433 124.522C123.293 124.306 123.223 124.044 123.223 123.736C123.223 123.356 123.327 123.024 123.535 122.74C123.743 122.452 124.033 122.23 124.405 122.074C124.781 121.918 125.217 121.84 125.713 121.84C126.205 121.84 126.645 121.918 127.033 122.074C127.421 122.23 127.733 122.452 127.969 122.74C128.209 123.024 128.351 123.356 128.395 123.736L127.303 123.934C127.251 123.586 127.083 123.312 126.799 123.112C126.519 122.912 126.157 122.806 125.713 122.794C125.293 122.778 124.951 122.852 124.687 123.016C124.427 123.18 124.297 123.402 124.297 123.682C124.297 123.838 124.345 123.972 124.441 124.084C124.541 124.196 124.723 124.302 124.987 124.402C125.255 124.502 125.643 124.616 126.151 124.744C126.723 124.888 127.173 125.046 127.501 125.218C127.833 125.386 128.069 125.586 128.209 125.818C128.349 126.046 128.419 126.328 128.419 126.664C128.419 127.288 128.189 127.78 127.729 128.14C127.269 128.496 126.635 128.674 125.827 128.674ZM134.953 128.68C134.473 128.68 134.025 128.61 133.609 128.47C133.193 128.33 132.845 128.11 132.565 127.81C132.349 127.57 132.187 127.306 132.079 127.018C131.975 126.726 131.917 126.418 131.905 126.094C131.905 125.778 131.951 125.47 132.043 125.17C132.135 124.866 132.281 124.596 132.481 124.36C132.585 124.232 132.701 124.124 132.829 124.036C132.961 123.944 133.093 123.866 133.225 123.802C132.949 123.506 132.737 123.228 132.589 122.968C132.445 122.708 132.373 122.394 132.373 122.026C132.373 121.558 132.493 121.136 132.733 120.76C132.977 120.38 133.309 120.102 133.729 119.926C133.933 119.838 134.141 119.778 134.353 119.746C134.569 119.71 134.779 119.692 134.983 119.692C135.327 119.692 135.661 119.74 135.985 119.836C136.309 119.932 136.585 120.088 136.813 120.304C136.965 120.432 137.095 120.58 137.203 120.748C137.311 120.912 137.395 121.084 137.455 121.264L136.411 121.534C136.335 121.33 136.209 121.158 136.033 121.018C135.893 120.898 135.729 120.816 135.541 120.772C135.357 120.728 135.171 120.706 134.983 120.706C134.671 120.706 134.389 120.766 134.137 120.886C133.913 120.994 133.745 121.146 133.633 121.342C133.521 121.534 133.465 121.762 133.465 122.026C133.465 122.254 133.503 122.442 133.579 122.59C133.659 122.734 133.769 122.888 133.909 123.052C133.993 123.14 134.087 123.234 134.191 123.334C134.299 123.43 134.409 123.53 134.521 123.634L137.065 125.998C137.077 125.898 137.085 125.796 137.089 125.692C137.093 125.588 137.095 125.488 137.095 125.392L137.089 124.198H138.067V125.602C138.067 125.886 138.057 126.128 138.037 126.328C138.021 126.528 137.993 126.694 137.953 126.826L139.051 127.84L138.355 128.584L137.443 127.72C137.287 127.896 137.101 128.05 136.885 128.182C136.669 128.314 136.453 128.414 136.237 128.482C136.033 128.558 135.823 128.61 135.607 128.638C135.391 128.666 135.173 128.68 134.953 128.68ZM134.977 127.654C135.173 127.654 135.351 127.642 135.511 127.618C135.671 127.594 135.823 127.548 135.967 127.48C136.159 127.388 136.307 127.3 136.411 127.216C136.515 127.132 136.601 127.054 136.669 126.982L134.035 124.57C133.891 124.618 133.755 124.682 133.627 124.762C133.503 124.842 133.395 124.936 133.303 125.044C133.199 125.172 133.121 125.322 133.069 125.494C133.021 125.666 132.997 125.848 132.997 126.04C133.001 126.244 133.035 126.432 133.099 126.604C133.163 126.776 133.253 126.93 133.369 127.066C133.545 127.27 133.783 127.42 134.083 127.516C134.383 127.608 134.681 127.654 134.977 127.654ZM145.164 128.68C144.508 128.68 143.95 128.534 143.49 128.242C143.034 127.946 142.686 127.54 142.446 127.024C142.206 126.508 142.082 125.92 142.074 125.26C142.082 124.584 142.208 123.99 142.452 123.478C142.7 122.962 143.054 122.56 143.514 122.272C143.974 121.984 144.528 121.84 145.176 121.84C145.86 121.84 146.448 122.008 146.94 122.344C147.436 122.68 147.768 123.14 147.936 123.724L146.88 124.042C146.744 123.666 146.522 123.374 146.214 123.166C145.91 122.958 145.56 122.854 145.164 122.854C144.72 122.854 144.354 122.958 144.066 123.166C143.778 123.37 143.564 123.654 143.424 124.018C143.284 124.378 143.212 124.792 143.208 125.26C143.216 125.98 143.382 126.562 143.706 127.006C144.034 127.446 144.52 127.666 145.164 127.666C145.588 127.666 145.94 127.57 146.22 127.378C146.5 127.182 146.712 126.9 146.856 126.532L147.936 126.814C147.712 127.418 147.362 127.88 146.886 128.2C146.41 128.52 145.836 128.68 145.164 128.68ZM151.745 128.68C151.101 128.68 150.545 128.534 150.077 128.242C149.613 127.95 149.255 127.546 149.003 127.03C148.751 126.514 148.625 125.922 148.625 125.254C148.625 124.574 148.753 123.978 149.009 123.466C149.265 122.954 149.627 122.556 150.095 122.272C150.563 121.984 151.113 121.84 151.745 121.84C152.393 121.84 152.951 121.986 153.419 122.278C153.887 122.566 154.245 122.968 154.493 123.484C154.745 123.996 154.871 124.586 154.871 125.254C154.871 125.93 154.745 126.526 154.493 127.042C154.241 127.554 153.881 127.956 153.413 128.248C152.945 128.536 152.389 128.68 151.745 128.68ZM151.745 127.666C152.417 127.666 152.917 127.442 153.245 126.994C153.573 126.546 153.737 125.966 153.737 125.254C153.737 124.522 153.571 123.94 153.239 123.508C152.907 123.072 152.409 122.854 151.745 122.854C151.293 122.854 150.921 122.956 150.629 123.16C150.337 123.364 150.119 123.646 149.975 124.006C149.831 124.366 149.759 124.782 149.759 125.254C149.759 125.982 149.927 126.566 150.263 127.006C150.599 127.446 151.093 127.666 151.745 127.666ZM160.806 128.5V125.254C160.806 124.946 160.778 124.65 160.722 124.366C160.67 124.082 160.576 123.828 160.44 123.604C160.308 123.376 160.128 123.196 159.9 123.064C159.676 122.932 159.392 122.866 159.048 122.866C158.78 122.866 158.536 122.912 158.316 123.004C158.1 123.092 157.914 123.228 157.758 123.412C157.602 123.596 157.48 123.828 157.392 124.108C157.308 124.384 157.266 124.71 157.266 125.086L156.564 124.87C156.564 124.242 156.676 123.704 156.9 123.256C157.128 122.804 157.446 122.458 157.854 122.218C158.266 121.974 158.75 121.852 159.306 121.852C159.726 121.852 160.084 121.918 160.38 122.05C160.676 122.182 160.922 122.358 161.118 122.578C161.314 122.794 161.468 123.038 161.58 123.31C161.692 123.578 161.77 123.852 161.814 124.132C161.862 124.408 161.886 124.67 161.886 124.918V128.5H160.806ZM156.186 128.5V122.02H157.146V123.754H157.266V128.5H156.186ZM165.931 128.68C165.327 128.68 164.809 128.53 164.377 128.23C163.945 127.926 163.611 127.516 163.375 127C163.143 126.484 163.027 125.902 163.027 125.254C163.027 124.606 163.143 124.024 163.375 123.508C163.611 122.992 163.945 122.586 164.377 122.29C164.809 121.99 165.325 121.84 165.925 121.84C166.537 121.84 167.051 121.988 167.467 122.284C167.883 122.58 168.197 122.986 168.409 123.502C168.625 124.018 168.733 124.602 168.733 125.254C168.733 125.898 168.625 126.48 168.409 127C168.197 127.516 167.883 127.926 167.467 128.23C167.051 128.53 166.539 128.68 165.931 128.68ZM166.063 127.702C166.499 127.702 166.857 127.598 167.137 127.39C167.417 127.178 167.623 126.888 167.755 126.52C167.891 126.148 167.959 125.726 167.959 125.254C167.959 124.774 167.891 124.352 167.755 123.988C167.623 123.62 167.419 123.334 167.143 123.13C166.867 122.922 166.517 122.818 166.093 122.818C165.653 122.818 165.289 122.926 165.001 123.142C164.717 123.358 164.505 123.65 164.365 124.018C164.229 124.386 164.161 124.798 164.161 125.254C164.161 125.714 164.231 126.13 164.371 126.502C164.511 126.87 164.721 127.162 165.001 127.378C165.285 127.594 165.639 127.702 166.063 127.702ZM167.959 128.5V123.73H167.839V119.86H168.913V128.5H167.959ZM170.714 120.874V119.77H171.782V120.874H170.714ZM170.714 128.5V122.02H171.782V128.5H170.714ZM177.2 128.5C176.816 128.576 176.436 128.606 176.06 128.59C175.688 128.578 175.356 128.504 175.064 128.368C174.772 128.228 174.55 128.012 174.398 127.72C174.27 127.464 174.2 127.206 174.188 126.946C174.18 126.682 174.176 126.384 174.176 126.052V120.22H175.244V126.004C175.244 126.268 175.246 126.494 175.25 126.682C175.258 126.87 175.3 127.032 175.376 127.168C175.52 127.424 175.748 127.574 176.06 127.618C176.376 127.662 176.756 127.65 177.2 127.582V128.5ZM172.862 122.902V122.02H177.2V122.902H172.862ZM178.636 120.874V119.77H179.704V120.874H178.636ZM178.636 128.5V122.02H179.704V128.5H178.636ZM184.264 128.68C183.62 128.68 183.064 128.534 182.596 128.242C182.132 127.95 181.774 127.546 181.522 127.03C181.27 126.514 181.144 125.922 181.144 125.254C181.144 124.574 181.272 123.978 181.528 123.466C181.784 122.954 182.146 122.556 182.614 122.272C183.082 121.984 183.632 121.84 184.264 121.84C184.912 121.84 185.47 121.986 185.938 122.278C186.406 122.566 186.764 122.968 187.012 123.484C187.264 123.996 187.39 124.586 187.39 125.254C187.39 125.93 187.264 126.526 187.012 127.042C186.76 127.554 186.4 127.956 185.932 128.248C185.464 128.536 184.908 128.68 184.264 128.68ZM184.264 127.666C184.936 127.666 185.436 127.442 185.764 126.994C186.092 126.546 186.256 125.966 186.256 125.254C186.256 124.522 186.09 123.94 185.758 123.508C185.426 123.072 184.928 122.854 184.264 122.854C183.812 122.854 183.44 122.956 183.148 123.16C182.856 123.364 182.638 123.646 182.494 124.006C182.35 124.366 182.278 124.782 182.278 125.254C182.278 125.982 182.446 126.566 182.782 127.006C183.118 127.446 183.612 127.666 184.264 127.666ZM193.325 128.5V125.254C193.325 124.946 193.297 124.65 193.241 124.366C193.189 124.082 193.095 123.828 192.959 123.604C192.827 123.376 192.647 123.196 192.419 123.064C192.195 122.932 191.911 122.866 191.567 122.866C191.299 122.866 191.055 122.912 190.835 123.004C190.619 123.092 190.433 123.228 190.277 123.412C190.121 123.596 189.999 123.828 189.911 124.108C189.827 124.384 189.785 124.71 189.785 125.086L189.083 124.87C189.083 124.242 189.195 123.704 189.419 123.256C189.647 122.804 189.965 122.458 190.373 122.218C190.785 121.974 191.269 121.852 191.825 121.852C192.245 121.852 192.603 121.918 192.899 122.05C193.195 122.182 193.441 122.358 193.637 122.578C193.833 122.794 193.987 123.038 194.099 123.31C194.211 123.578 194.289 123.852 194.333 124.132C194.381 124.408 194.405 124.67 194.405 124.918V128.5H193.325ZM188.705 128.5V122.02H189.665V123.754H189.785V128.5H188.705ZM198.413 128.674C197.641 128.674 197.007 128.506 196.511 128.17C196.019 127.83 195.717 127.356 195.605 126.748L196.697 126.574C196.785 126.926 196.987 127.206 197.303 127.414C197.619 127.618 198.011 127.72 198.479 127.72C198.923 127.72 199.271 127.628 199.523 127.444C199.775 127.26 199.901 127.01 199.901 126.694C199.901 126.51 199.859 126.362 199.775 126.25C199.691 126.134 199.517 126.026 199.253 125.926C198.993 125.826 198.599 125.706 198.071 125.566C197.499 125.414 197.049 125.256 196.721 125.092C196.393 124.928 196.159 124.738 196.019 124.522C195.879 124.306 195.809 124.044 195.809 123.736C195.809 123.356 195.913 123.024 196.121 122.74C196.329 122.452 196.619 122.23 196.991 122.074C197.367 121.918 197.803 121.84 198.299 121.84C198.791 121.84 199.231 121.918 199.619 122.074C200.007 122.23 200.319 122.452 200.555 122.74C200.795 123.024 200.937 123.356 200.981 123.736L199.889 123.934C199.837 123.586 199.669 123.312 199.385 123.112C199.105 122.912 198.743 122.806 198.299 122.794C197.879 122.778 197.537 122.852 197.273 123.016C197.013 123.18 196.883 123.402 196.883 123.682C196.883 123.838 196.931 123.972 197.027 124.084C197.127 124.196 197.309 124.302 197.573 124.402C197.841 124.502 198.229 124.616 198.737 124.744C199.309 124.888 199.759 125.046 200.087 125.218C200.419 125.386 200.655 125.586 200.795 125.818C200.935 126.046 201.005 126.328 201.005 126.664C201.005 127.288 200.775 127.78 200.315 128.14C199.855 128.496 199.221 128.674 198.413 128.674Z" fill="#3C0EB9"/>
</g>
</g>
<defs>
<filter id="filter0_dd_347_14401" x="0" y="0" width="353" height="181" filterUnits="userSpaceOnUse" color-interpolation-filters="sRGB">
<feFlood flood-opacity="0" result="BackgroundImageFix"/>
<feColorMatrix in="SourceAlpha" type="matrix" values="0 0 0 0 0 0 0 0 0 0 0 0 0 0 0 0 0 0 127 0" result="hardAlpha"/>
<feMorphology radius="3" operator="erode" in="SourceAlpha" result="effect1_dropShadow_347_14401"/>
<feOffset dy="2"/>
<feGaussianBlur stdDeviation="2"/>
<feColorMatrix type="matrix" values="0 0 0 0 0.137255 0 0 0 0 0.152941 0 0 0 0 0.184314 0 0 0 0.04 0"/>
<feBlend mode="normal" in2="BackgroundImageFix" result="effect1_dropShadow_347_14401"/>
<feColorMatrix in="SourceAlpha" type="matrix" values="0 0 0 0 0 0 0 0 0 0 0 0 0 0 0 0 0 0 127 0" result="hardAlpha"/>
<feMorphology radius="3" operator="erode" in="SourceAlpha" result="effect2_dropShadow_347_14401"/>
<feOffset dy="4"/>
<feGaussianBlur stdDeviation="4"/>
<feColorMatrix type="matrix" values="0 0 0 0 0.137255 0 0 0 0 0.152941 0 0 0 0 0.184314 0 0 0 0.12 0"/>
<feBlend mode="normal" in2="effect1_dropShadow_347_14401" result="effect2_dropShadow_347_14401"/>
<feBlend mode="normal" in="SourceGraphic" in2="effect2_dropShadow_347_14401" result="shape"/>
</filter>
<clipPath id="clip0_347_14401">
<rect x="5" y="1" width="343" height="171" rx="20" fill="white"/>
</clipPath>
</defs>
</svg>
