<svg xmlns="http://www.w3.org/2000/svg" xmlns:xlink="http://www.w3.org/1999/xlink" width="432" zoomAndPan="magnify" viewBox="0 0 324 323.999988" height="432" preserveAspectRatio="xMidYMid meet" version="1.0"><path fill="#ffffff" d="M 115.433594 133.488281 C 127.867188 133.488281 137.808594 136.597656 145.414062 143.511719 C 150.609375 148.214844 153.511719 154.921875 153.429688 161.957031 C 153.421875 163.691406 153.238281 165.410156 152.882812 167.105469 C 152.527344 168.804688 152.003906 170.449219 151.3125 172.042969 C 150.625 173.632812 149.785156 175.140625 148.789062 176.5625 C 147.796875 177.984375 146.671875 179.292969 145.414062 180.488281 C 138.296875 187.03125 127.210938 190.507812 115.429688 190.507812 C 103.652344 190.507812 92.769531 187.03125 85.53125 180.488281 C 80.253906 175.785156 77.308594 169.035156 77.390625 161.957031 C 77.390625 154.964844 80.335938 148.253906 85.53125 143.511719 C 92.28125 137.375 104.222656 133.488281 115.433594 133.488281 Z M 115.472656 183.023438 C 121.691406 183.023438 127.457031 180.855469 131.507812 176.847656 C 135.554688 172.796875 137.355469 167.929688 137.355469 161.957031 C 137.355469 156.230469 135.351562 150.875 131.507812 147.070312 C 127.539062 143.144531 121.609375 140.933594 115.472656 140.933594 C 109.335938 140.933594 103.40625 143.144531 99.398438 147.070312 C 95.554688 150.875 93.546875 156.230469 93.546875 161.960938 C 93.46875 167.480469 95.554688 172.839844 99.398438 176.847656 C 103.40625 180.816406 109.296875 183.023438 115.472656 183.023438 Z M 50.109375 156.476562 C 52.273438 157.046875 54.359375 157.746094 56.40625 158.683594 C 58.308594 159.550781 60.015625 160.710938 61.519531 162.160156 C 64.179688 164.941406 65.691406 168.664062 65.652344 172.507812 C 65.664062 173.523438 65.558594 174.527344 65.339844 175.519531 C 65.117188 176.507812 64.785156 177.460938 64.339844 178.371094 C 63.898438 179.285156 63.355469 180.136719 62.710938 180.921875 C 62.070312 181.707031 61.34375 182.40625 60.539062 183.023438 C 57.652344 185.214844 54.460938 186.78125 50.964844 187.726562 C 45.71875 189.375 40.347656 190.136719 34.851562 190.019531 C 30.097656 190.019531 27.46875 189.472656 23.863281 188.71875 L 22.824219 188.503906 C 18.855469 187.605469 14.972656 186.378906 11.25 184.742188 C 11.074219 184.625 10.886719 184.570312 10.675781 184.578125 C 10.0625 184.578125 9.570312 185.109375 9.570312 185.722656 L 9.570312 188.464844 L 1.636719 188.464844 L 1.636719 168.503906 L 8.714844 168.503906 C 8.753906 170.570312 9.367188 172.453125 10.554688 174.144531 C 13.417969 177.664062 16.484375 179.015625 19.429688 180.078125 C 24.378906 181.714844 29.574219 182.574219 34.769531 182.738281 C 42.226562 182.738281 46.589844 180.929688 47.53125 180.535156 L 47.652344 180.488281 L 47.738281 180.457031 C 48.570312 180.152344 51.949219 178.914062 51.949219 175.167969 C 51.949219 171.464844 48.792969 170.660156 46.722656 170.132812 L 46.425781 170.054688 C 44.121094 169.433594 38.839844 168.878906 33.066406 168.269531 L 31.003906 168.054688 C 24.460938 167.359375 17.914062 166.335938 14.847656 165.679688 C 8.128906 164.199219 5.476562 161.742188 3.832031 160.21875 L 3.722656 160.117188 C 2.523438 158.835938 1.601562 157.382812 0.957031 155.75 C 0.316406 154.117188 -0.00390625 152.425781 0 150.671875 C 0 143.960938 4.582031 139.910156 10.226562 137.417969 C 16.238281 134.71875 23.398438 133.53125 29.65625 133.53125 C 40.742188 133.570312 49.738281 137.171875 52.96875 138.847656 C 54.28125 139.542969 54.933594 138.683594 54.933594 138.03125 L 54.933594 136.027344 L 62.050781 136.027344 L 62.050781 153.410156 L 55.671875 153.410156 C 55.382812 152.121094 54.902344 150.910156 54.222656 149.773438 C 53.542969 148.640625 52.703125 147.644531 51.703125 146.78125 C 50.476562 145.796875 49.136719 144.992188 47.691406 144.371094 C 42.335938 142.121094 36.609375 140.976562 30.800781 141.054688 C 24.828125 141.054688 19.101562 142.203125 16.238281 143.960938 C 14.441406 145.066406 13.539062 146.457031 13.539062 148.09375 C 13.539062 150.425781 15.503906 151.367188 16.484375 151.652344 C 19.140625 152.457031 25.027344 153.042969 29.605469 153.5 C 30.601562 153.597656 31.53125 153.691406 32.355469 153.777344 C 36.773438 154.230469 46.015625 155.457031 50.109375 156.476562 Z M 295.367188 143.023438 L 295.367188 136.558594 L 324 136.558594 L 324 142.898438 L 317.578125 142.898438 C 315.246094 142.898438 314.304688 143.351562 312.546875 145.3125 L 293.28125 167.316406 C 293.074219 167.597656 292.992188 167.914062 293.035156 168.261719 L 293.035156 178.28125 C 293.066406 178.746094 293.121094 179.210938 293.199219 179.671875 C 293.441406 180.308594 293.890625 180.71875 294.546875 180.898438 C 295.132812 180.980469 295.71875 181.019531 296.308594 181.019531 L 302.851562 181.019531 L 302.851562 187.363281 L 268.125 187.363281 L 268.125 181.019531 L 274.34375 181.019531 C 274.933594 181.023438 275.519531 180.980469 276.101562 180.898438 C 276.753906 180.707031 277.21875 180.296875 277.492188 179.671875 C 277.574219 179.222656 277.613281 178.773438 277.613281 178.320312 L 277.613281 168.300781 C 277.613281 167.972656 277.613281 167.972656 277.164062 167.441406 C 270.824219 160.21875 264.46875 153.003906 258.105469 145.804688 C 257.082031 144.738281 255.320312 143.023438 252.621094 143.023438 L 246.445312 143.023438 L 246.445312 136.683594 L 281.378906 136.683594 L 281.378906 143.023438 L 277.164062 143.023438 C 276.222656 143.023438 275.570312 143.960938 276.386719 144.984375 C 276.386719 144.984375 288.125 159.015625 288.25 159.179688 C 288.371094 159.34375 288.453125 159.34375 288.617188 159.21875 C 288.78125 159.097656 300.683594 145.109375 300.765625 144.984375 C 300.863281 144.855469 300.933594 144.710938 300.972656 144.554688 C 301.011719 144.394531 301.019531 144.238281 301 144.074219 C 300.976562 143.914062 300.921875 143.765625 300.839844 143.625 C 300.757812 143.484375 300.652344 143.367188 300.519531 143.265625 C 300.273438 143.101562 300 143.019531 299.703125 143.023438 Z M 210.53125 142.980469 L 217.078125 142.980469 C 220.0625 142.980469 220.59375 144.125 220.636719 146.90625 L 221.003906 168.054688 L 186.152344 136.679688 L 161.242188 136.679688 L 161.242188 143.019531 L 166.804688 143.019531 C 170.816406 143.019531 171.101562 145.230469 171.101562 147.191406 L 171.101562 177.078125 C 171.105469 178.8125 171.113281 181.0625 168.648438 181.0625 L 161.816406 181.0625 L 161.816406 187.359375 L 191.023438 187.359375 L 191.023438 181.019531 L 183.902344 181.019531 C 181.042969 181.019531 180.917969 179.710938 180.878906 176.929688 L 180.878906 151.527344 L 221.003906 187.316406 L 231.230469 187.316406 L 230.699219 146.863281 C 230.738281 143.921875 230.945312 142.9375 233.972656 142.9375 L 240.351562 142.9375 L 240.351562 136.597656 L 210.53125 136.597656 Z M 210.53125 142.980469 " fill-opacity="1" fill-rule="nonzero"/><path fill="#000000" d="M 115.433594 133.488281 C 127.867188 133.488281 137.808594 136.597656 145.414062 143.511719 C 150.609375 148.214844 153.511719 154.921875 153.429688 161.957031 C 153.421875 163.691406 153.238281 165.410156 152.882812 167.105469 C 152.527344 168.804688 152.003906 170.449219 151.3125 172.042969 C 150.625 173.632812 149.785156 175.140625 148.789062 176.5625 C 147.796875 177.984375 146.671875 179.292969 145.414062 180.488281 C 138.296875 187.03125 127.210938 190.507812 115.429688 190.507812 C 103.652344 190.507812 92.769531 187.03125 85.53125 180.488281 C 80.253906 175.785156 77.308594 169.035156 77.390625 161.957031 C 77.390625 154.964844 80.335938 148.253906 85.53125 143.511719 C 92.28125 137.375 104.222656 133.488281 115.433594 133.488281 Z M 115.472656 183.023438 C 121.691406 183.023438 127.457031 180.855469 131.507812 176.847656 C 135.554688 172.796875 137.355469 167.929688 137.355469 161.957031 C 137.355469 156.230469 135.351562 150.875 131.507812 147.070312 C 127.539062 143.144531 121.609375 140.933594 115.472656 140.933594 C 109.335938 140.933594 103.40625 143.144531 99.398438 147.070312 C 95.554688 150.875 93.546875 156.230469 93.546875 161.960938 C 93.46875 167.480469 95.554688 172.839844 99.398438 176.847656 C 103.40625 180.816406 109.296875 183.023438 115.472656 183.023438 Z M 50.109375 156.476562 C 52.273438 157.046875 54.359375 157.746094 56.40625 158.683594 C 58.308594 159.550781 60.015625 160.710938 61.519531 162.160156 C 64.179688 164.941406 65.691406 168.664062 65.652344 172.507812 C 65.664062 173.523438 65.558594 174.527344 65.339844 175.519531 C 65.117188 176.507812 64.785156 177.460938 64.339844 178.371094 C 63.898438 179.285156 63.355469 180.136719 62.710938 180.921875 C 62.070312 181.707031 61.34375 182.40625 60.539062 183.023438 C 57.652344 185.214844 54.460938 186.78125 50.964844 187.726562 C 45.71875 189.375 40.347656 190.136719 34.851562 190.019531 C 30.097656 190.019531 27.46875 189.472656 23.863281 188.71875 L 22.824219 188.503906 C 18.855469 187.605469 14.972656 186.378906 11.25 184.742188 C 11.074219 184.625 10.886719 184.570312 10.675781 184.578125 C 10.0625 184.578125 9.570312 185.109375 9.570312 185.722656 L 9.570312 188.464844 L 1.636719 188.464844 L 1.636719 168.503906 L 8.714844 168.503906 C 8.753906 170.570312 9.367188 172.453125 10.554688 174.144531 C 13.417969 177.664062 16.484375 179.015625 19.429688 180.078125 C 24.378906 181.714844 29.574219 182.574219 34.769531 182.738281 C 42.226562 182.738281 46.589844 180.929688 47.53125 180.535156 L 47.652344 180.488281 L 47.738281 180.457031 C 48.570312 180.152344 51.949219 178.914062 51.949219 175.167969 C 51.949219 171.464844 48.792969 170.660156 46.722656 170.132812 L 46.425781 170.054688 C 44.121094 169.433594 38.839844 168.878906 33.066406 168.269531 L 31.003906 168.054688 C 24.460938 167.359375 17.914062 166.335938 14.847656 165.679688 C 8.128906 164.199219 5.476562 161.742188 3.832031 160.21875 L 3.722656 160.117188 C 2.523438 158.835938 1.601562 157.382812 0.957031 155.75 C 0.316406 154.117188 -0.00390625 152.425781 0 150.671875 C 0 143.960938 4.582031 139.910156 10.226562 137.417969 C 16.238281 134.71875 23.398438 133.53125 29.65625 133.53125 C 40.742188 133.570312 49.738281 137.171875 52.96875 138.847656 C 54.28125 139.542969 54.933594 138.683594 54.933594 138.03125 L 54.933594 136.027344 L 62.050781 136.027344 L 62.050781 153.410156 L 55.671875 153.410156 C 55.382812 152.121094 54.902344 150.910156 54.222656 149.773438 C 53.542969 148.640625 52.703125 147.644531 51.703125 146.78125 C 50.476562 145.796875 49.136719 144.992188 47.691406 144.371094 C 42.335938 142.121094 36.609375 140.976562 30.800781 141.054688 C 24.828125 141.054688 19.101562 142.203125 16.238281 143.960938 C 14.441406 145.066406 13.539062 146.457031 13.539062 148.09375 C 13.539062 150.425781 15.503906 151.367188 16.484375 151.652344 C 19.140625 152.457031 25.027344 153.042969 29.605469 153.5 C 30.601562 153.597656 31.53125 153.691406 32.355469 153.777344 C 36.773438 154.230469 46.015625 155.457031 50.109375 156.476562 Z M 295.367188 143.023438 L 295.367188 136.558594 L 324 136.558594 L 324 142.898438 L 317.578125 142.898438 C 315.246094 142.898438 314.304688 143.351562 312.546875 145.3125 L 293.28125 167.316406 C 293.074219 167.597656 292.992188 167.914062 293.035156 168.261719 L 293.035156 178.28125 C 293.066406 178.746094 293.121094 179.210938 293.199219 179.671875 C 293.441406 180.308594 293.890625 180.71875 294.546875 180.898438 C 295.132812 180.980469 295.71875 181.019531 296.308594 181.019531 L 302.851562 181.019531 L 302.851562 187.363281 L 268.125 187.363281 L 268.125 181.019531 L 274.34375 181.019531 C 274.933594 181.023438 275.519531 180.980469 276.101562 180.898438 C 276.753906 180.707031 277.21875 180.296875 277.492188 179.671875 C 277.574219 179.222656 277.613281 178.773438 277.613281 178.320312 L 277.613281 168.300781 C 277.613281 167.972656 277.613281 167.972656 277.164062 167.441406 C 270.824219 160.21875 264.46875 153.003906 258.105469 145.804688 C 257.082031 144.738281 255.320312 143.023438 252.621094 143.023438 L 246.445312 143.023438 L 246.445312 136.683594 L 281.378906 136.683594 L 281.378906 143.023438 L 277.164062 143.023438 C 276.222656 143.023438 275.570312 143.960938 276.386719 144.984375 C 276.386719 144.984375 288.125 159.015625 288.25 159.179688 C 288.371094 159.34375 288.453125 159.34375 288.617188 159.21875 C 288.78125 159.097656 300.683594 145.109375 300.765625 144.984375 C 300.863281 144.855469 300.933594 144.710938 300.972656 144.554688 C 301.011719 144.394531 301.019531 144.238281 301 144.074219 C 300.976562 143.914062 300.921875 143.765625 300.839844 143.625 C 300.757812 143.484375 300.652344 143.367188 300.519531 143.265625 C 300.273438 143.101562 300 143.019531 299.703125 143.023438 Z M 210.53125 142.980469 L 217.078125 142.980469 C 220.0625 142.980469 220.59375 144.125 220.636719 146.90625 L 221.003906 168.054688 L 186.152344 136.679688 L 161.242188 136.679688 L 161.242188 143.019531 L 166.804688 143.019531 C 170.816406 143.019531 171.101562 145.230469 171.101562 147.191406 L 171.101562 177.078125 C 171.105469 178.8125 171.113281 181.0625 168.648438 181.0625 L 161.816406 181.0625 L 161.816406 187.359375 L 191.023438 187.359375 L 191.023438 181.019531 L 183.902344 181.019531 C 181.042969 181.019531 180.917969 179.710938 180.878906 176.929688 L 180.878906 151.527344 L 221.003906 187.316406 L 231.230469 187.316406 L 230.699219 146.863281 C 230.738281 143.921875 230.945312 142.9375 233.972656 142.9375 L 240.351562 142.9375 L 240.351562 136.597656 L 210.53125 136.597656 Z M 210.53125 142.980469 " fill-opacity="1" fill-rule="nonzero"/></svg>